<svg id="Ebene_1" data-name="Ebene 1" xmlns="http://www.w3.org/2000/svg" viewBox="0 0 336.3 348.4"><defs><style>.cls-1{fill:#e09e89;}.cls-2{fill:#ebc1b1;}.cls-3{fill:#db8d76;}.cls-4{fill:#d27159;}.cls-5{fill:#d67c65;}.cls-6{fill:#b0284f;}.cls-7{fill:#e3a793;}.cls-8{fill:#e5ae9b;}.cls-9{fill:#d78169;}.cls-10{fill:#fed386;}.cls-11{fill:#1d1d1b;}.cls-12{fill:#f6f6f6;}.cls-13{fill:#fdc864;}.cls-14{fill:#df9c86;}.cls-15{fill:#fdecf5;}</style></defs><title>Einhuhn</title><polygon class="cls-1" points="169.49 231.51 160.51 234.31 163.29 234.06 161.03 236.68 165.06 234.71 164.05 237.49 170.88 232.6 172.14 231.32 171.88 231.09 170.94 231.87 169.49 231.51"/><polygon class="cls-2" points="170.72 218.34 169.49 231.51 169.6 231.74 170.28 231.97 170.94 231.87 172.26 217.49 170.72 218.34"/><polygon class="cls-3" points="172.26 217.49 173.13 219.6 171.88 231.09 170.94 231.87 170.94 231.87 172.26 217.49"/><polygon class="cls-4" points="139.4 126.81 139.58 130.9 131.07 126.81 134.23 125.6 139.4 126.81"/><polygon class="cls-5" points="146.19 143.84 139.4 149.05 131.07 155.43 134.23 142.96 139.86 137.53 146.19 143.84"/><polygon class="cls-6" points="131.53 139.33 131.47 140.34 130.78 141.14 129.39 140.59 127.42 137.68 131.53 139.33"/><polygon class="cls-7" points="220.07 166.75 216.82 174.95 214.82 183.35 206.32 185.66 209.54 177.4 197.92 165.82 220.07 166.75"/><polygon class="cls-1" points="139.59 130.91 139.58 130.92 139.58 130.9 139.59 130.91"/><polygon class="cls-1" points="139.58 130.9 139.58 130.92 132.68 137.53 130.51 136.34 126.56 134.56 125.16 133.1 131.07 126.81 139.58 130.9"/><polygon class="cls-8" points="140.27 166.75 135.71 188.05 130.49 175.24 129.39 167.59 140.27 166.75"/><polygon class="cls-1" points="132.68 137.53 130.29 136.37 130.51 136.34 132.68 137.53"/><polygon class="cls-5" points="147.21 131.79 152.33 141.14 139.86 137.53 139.59 130.91 139.4 126.81 147.21 131.79"/><polygon class="cls-1" points="139.4 149.05 149.97 160.95 140.27 166.75 129.39 167.59 129.39 161.67 131.07 155.43 139.4 149.05"/><polygon class="cls-3" points="139.58 130.92 139.86 137.53 134.23 142.96 132.68 137.53 139.58 130.92"/><polygon class="cls-8" points="197.92 165.82 206.32 185.66 192.97 187.52 186.1 182.8 177.69 167.59 197.92 165.82"/><polygon class="cls-8" points="211.57 139.96 206.32 152.4 197.92 165.82 195.84 147.24 211.57 139.96"/><polygon class="cls-1" points="197.92 165.82 177.69 167.59 166.44 157.57 182.18 156.37 197.92 165.82"/><polygon class="cls-2" points="192.97 187.52 195.84 192.44 192.46 195.21 168.46 190.08 155.68 186.33 147.62 176.39 149.97 160.95 166.44 157.57 177.69 167.59 186.1 182.8 192.97 187.52"/><polygon class="cls-1" points="130.29 136.37 132.68 137.53 134.23 142.96 131.53 139.33 127.42 137.68 125.64 136.96 130.29 136.37"/><polygon class="cls-3" points="139.59 130.91 139.86 137.53 139.58 130.92 139.59 130.91"/><polygon class="cls-2" points="206.32 133.98 211.57 139.96 195.84 147.24 206.32 133.98"/><polygon class="cls-8" points="209.54 177.4 206.32 185.66 197.92 165.82 209.54 177.4"/><polygon class="cls-3" points="149.97 160.95 147.62 176.39 146.96 180.73 140.27 166.75 149.97 160.95"/><polygon class="cls-8" points="170.28 206.19 171.54 220.09 169.13 219.02 159.5 207.39 149.53 200.78 139.86 193.26 150.63 188.4 170.28 206.19"/><polygon class="cls-7" points="222.07 145.25 220.07 166.75 197.92 165.82 206.32 152.4 214.61 147.24 222.07 145.25"/><polygon class="cls-6" points="125.16 133.1 123.9 133.1 126.49 127.75 127.42 124.67 130.74 125.32 131.07 126.81 125.16 133.1"/><polygon class="cls-1" points="130.51 136.34 130.29 136.37 126.56 134.56 130.51 136.34"/><polygon class="cls-7" points="192.46 195.21 194.77 210.22 185.54 212.22 178.67 219.02 171.54 220.09 170.28 206.19 192.46 195.21"/><polygon class="cls-8" points="207.35 195.21 207.57 197.73 199.92 208.86 194.77 210.22 192.46 195.21 195.84 192.44 206.32 185.66 207.35 195.21"/><polygon class="cls-9" points="166.44 157.57 149.97 160.95 139.4 149.05 146.19 143.84 155.68 150.08 166.44 157.57"/><polygon class="cls-7" points="195.84 147.24 197.92 165.82 182.18 156.37 195.84 147.24"/><polygon class="cls-2" points="216.08 135.6 222.07 145.25 214.61 147.24 206.32 152.4 211.57 139.96 216.08 135.6"/><polygon class="cls-8" points="206.32 185.66 195.84 192.44 192.97 187.52 206.32 185.66"/><polygon class="cls-1" points="146.96 180.73 150.63 188.4 139.86 193.26 135.71 188.05 140.27 166.75 146.96 180.73"/><polygon class="cls-4" points="152.33 141.14 155.68 150.08 146.19 143.84 139.86 137.53 152.33 141.14"/><polygon class="cls-10" points="123.9 133.1 125.16 133.1 126.56 134.56 130.29 136.37 125.64 136.96 122.15 138.1 122.15 135.9 123.9 133.1"/><polygon class="cls-4" points="139.4 126.81 139.59 130.91 139.58 130.9 139.4 126.81"/><polygon class="cls-8" points="129.15 130.61 131.53 128.89 133.78 130.91 131.75 132.99 130.51 132.99 129.15 130.61"/><polygon class="cls-11" points="129.93 130.91 131.53 129.77 132.68 130.91 131.31 132.17 129.93 130.91"/><polygon class="cls-12" points="131.13 131.05 131.68 130.61 132.37 130.84 131.41 131.56 131.13 131.05"/><polygon class="cls-13" points="122.15 138.1 124.74 136.35 129.93 136.35 125.64 136.96 122.15 138.1"/><polygon class="cls-3" points="171.89 188.05 155.68 186.34 140.26 166.75 150.63 188.41 170.27 206.19 192.45 195.21 171.89 188.05"/><polygon class="cls-14" points="155.68 150.08 149.97 160.96 166.44 157.57 155.68 150.08"/><polygon class="cls-2" points="206.32 185.66 207.34 195.21 210.2 190.08 214.82 183.35 206.32 185.66"/><polygon class="cls-15" points="125.93 130.18 127.15 129.93 128.01 127.74 114.76 119.17 114.24 119.17 114.24 119.7 125.93 130.18"/><polygon class="cls-2" points="222.06 145.25 216.91 166.75 217.47 173.31 220.07 166.75 222.06 145.25"/><polygon class="cls-3" points="160.63 234.3 163.04 234.44 163.29 234.06 160.63 234.3"/><polygon class="cls-3" points="161.03 236.68 164.89 235.18 165.06 234.71 161.03 236.68"/><polygon class="cls-3" points="164.05 237.49 171.39 232.98 172.14 232.22 172.14 231.32 171.16 232.31 164.05 237.49"/><polygon class="cls-8" points="174.19 232.25 166.91 238.63 171.06 236.17 169.37 240.39 172.95 237.16 172.94 240.74 176.11 234.58 176.96 232.32 176.95 231.06 175.64 232.6 175.29 232.52 174.86 232.41 174.19 232.25"/><polygon class="cls-2" points="175.54 217.48 174.19 232.25 174.56 232.44 175.13 232.62 175.64 232.6 177.09 216.63 175.54 217.48"/><polygon class="cls-1" points="177.09 216.63 177.95 218.74 176.93 231.75 175.64 232.6 175.7 231.47 177.09 216.63"/><polygon class="cls-1" points="166.91 238.63 170.94 236.48 171.06 236.17 166.91 238.63"/><polygon class="cls-1" points="169.37 240.39 172.95 237.66 172.95 237.16 169.37 240.39"/><polygon class="cls-1" points="172.94 240.74 176.38 233.88 176.96 232.32 177.09 233.18 176.74 234.09 172.94 240.74"/></svg>