<svg id="Ebene_1" data-name="Ebene 1" xmlns="http://www.w3.org/2000/svg" viewBox="0 0 666.63 351.93"><defs><style>.cls-1{fill:#432918;}.cls-2{fill:#634e42;}.cls-3{fill:#2fac66;}</style></defs><title>Insel</title><polygon class="cls-1" points="662.94 151.73 651.12 184.72 638.41 202.92 609.53 217.48 577.71 236.57 558.6 264.4 530.57 263.84 478.02 300.91 462.02 298.25 439.66 314.73 428.13 307.52 403.36 316.74 389.39 318.42 373.68 334.16 358.94 325.91 337.04 340.52 308.38 351.93 289.93 348.05 276.97 332.71 281.82 319.29 304 307.05 282.04 304.98 262.9 311.16 247.86 303.75 212.92 289.19 202.02 294.57 175.13 292.66 144.34 272.55 103.04 249.56 89.06 247.11 69.77 242.54 43.26 219.08 32.63 197.4 10.23 179.88 0 135.65 662.94 151.73"/><polygon class="cls-2" points="0 135.65 11.82 168.64 24.53 186.84 45.78 214.54 67.47 220.2 87.66 248.65 96.32 258.46 107.96 255.96 137.87 284.23 151.22 278.82 171.23 296.81 181.32 320.97 191.38 333.37 213.52 348.76 228.27 345.68 254.43 327.28 265.93 334.4 294.31 336.89 310.75 315.59 330.86 315.16 358.95 290.96 380.9 288.9 400.04 295.08 415.08 287.67 450.02 273.11 460.92 278.49 487.81 276.58 518.6 256.47 559.9 233.48 573.88 231.03 593.17 226.46 619.68 203 643.92 186.15 661.88 164.38 666.63 135.65 0 135.65"/><polygon class="cls-3" points="666.63 135.65 642.53 166.9 628.5 172.54 595.02 188.41 567.24 189.49 530.5 206.49 501.5 216.45 472.03 217.31 426.37 227.52 372.8 231.03 354.71 223.64 322.01 226.2 288.75 223.64 245.94 219.57 214.05 206.77 181.36 207.82 87.3 192.53 69.09 176.33 41.24 174.73 22.17 163.32 0 135.65 6.77 123.91 19.1 113.42 57.94 94.16 75.75 92.92 145.65 79.65 204.46 77.38 208.98 83.98 243.72 85.09 342.34 88.99 407.42 87.81 442 85.09 478.07 92.46 493.46 84.12 499.81 85.56 534.25 87.15 597.88 98.3 625.71 109.75 657.53 120.87 666.63 135.65"/><path class="cls-1" d="M618.1,342.06s55.18,53.5,8,53.5c-19.87,0-171.5,59.25-171.5,59.25l-16.2-86,16.49-23,5.16-1.36L512.07,339l26.51-3.66,32.5,6.68,39.79-1.28Z" transform="translate(-182.48 -335.38)"/><polygon class="cls-2" points="265.93 22.97 272.37 10.43 260.6 20.2 241.35 35.4 223.37 59.56 200.21 81.38 177.95 89.91 182.27 93.94 188.69 97.69 191 102.06 185.88 108.79 186.15 116.21 191.37 121.7 206.36 125.68 214.45 135.21 222.15 144.28 239.74 147.08 253.03 149.19 268.82 153.05 284.6 153.48 311.3 154.19 332.74 154.77 349.65 155.22 366.55 161.56 383.52 154.61 455.23 146.45 500.59 135.19 523.01 123.45 518.37 112.74 534.25 103.99 519.01 95.29 501.52 75.61 475.93 53.54 458.87 27.86 435.62 6.69 441.6 15.04 445.96 23.93 430.52 21.61 421.37 24.13 413.14 41.05 372.18 39.31 350.46 54.23 335.58 37.32 324.05 39.71 312.91 34.93 296.08 40.1 288.65 33.34 273.3 45.71 272.57 19.71 265.93 22.97"/></svg>