<svg id="Ebene_1" data-name="Ebene 1" xmlns="http://www.w3.org/2000/svg" viewBox="0 0 72.5 73.5">
  <defs>
    <style>
      .cls-1 {
        fill: none;
        stroke: #000;
        stroke-miterlimit: 10;
      }
    </style>
  </defs>
  <title>Palmtree</title>
  <path class="cls-1" d="M39.32,87.49c0-39.24,6.12-71,13.69-71" transform="translate(-16 -16)"/>
  <path class="cls-1" d="M16.5,24.05c0-4.17,17-7.55,38-7.55" transform="translate(-16 -16)"/>
  <path class="cls-1" d="M88,36.14C88,25.28,73.71,16.5,56.05,16.5" transform="translate(-16 -16)"/>
  <path class="cls-1" d="M66.7,42.18C66.7,28,61.26,16.5,54.53,16.5" transform="translate(-16 -16)"/>
  <path class="cls-1" d="M28.67,39.16c0-12.53,11.57-22.66,25.86-22.66" transform="translate(-16 -16)"/>
  <path class="cls-1" d="M50,89c0-39.24,4.08-71,9.13-71" transform="translate(-16 -16)"/>
  <line class="cls-1" x1="23.32" y1="71.49" x2="33.97" y2="73"/>
  <line class="cls-1" x1="43.1" y1="2.01" x2="37.01" y2="0.5"/>
</svg>
