<svg id="Ebene_1" data-name="Ebene 1" xmlns="http://www.w3.org/2000/svg" viewBox="0 0 342.95 348.4"><defs><style>.cls-1{fill:#ebe0e0;}.cls-2{fill:#d5c1c1;}.cls-3{fill:#e5d7d8;}.cls-4{fill:#f0e8e8;}.cls-5{fill:#fdfbfb;}.cls-6{fill:#eadfdf;}.cls-7{fill:#f2ebeb;}.cls-8{fill:#f5efef;}.cls-9{fill:#faf7f7;}.cls-10{fill:#ede3e3;}.cls-11{fill:#2e2628;}.cls-12{fill:#1d1d1b;}.cls-13{fill:#d0baba;}.cls-14{fill:#e8dbdc;}.cls-15{fill:#575756;}.cls-16{fill:#f6f6f6;}.cls-17{fill:#dcc;}</style></defs><title>Einhuhn</title><polygon class="cls-1" points="125.3 211.28 134.79 263.79 140.22 266.29 134.59 204.59 125.3 211.28"/><polygon class="cls-2" points="140.42 268.3 134.59 204.59 137.17 210.37 140.83 221.92 140.42 268.3"/><polygon class="cls-2" points="134.33 261.9 140.22 266.29 140.42 268.3 136.73 269.52 134.14 268.14 134.33 261.9"/><polygon class="cls-1" points="204.56 209.67 214.05 262.17 219.48 264.68 213.85 202.97 204.56 209.67"/><polygon class="cls-2" points="219.67 266.68 213.85 202.97 216.43 208.76 221.9 221.87 219.67 266.68"/><polygon class="cls-2" points="213.58 260.29 219.48 264.68 219.67 266.68 215.98 267.9 213.4 266.53 213.58 260.29"/><polygon class="cls-3" points="133.56 178.81 151.94 224.66 117.91 213.79 133.56 178.81"/><polygon class="cls-3" points="148.36 231.24 117.91 213.79 151.94 224.66 148.36 231.24"/><polygon class="cls-4" points="255.5 172.05 246.08 155.26 231.91 172.41 255.5 172.05"/><polygon class="cls-4" points="255.5 172.05 246.69 196.92 231.91 172.41 255.5 172.05"/><polygon class="cls-5" points="240.43 147.33 217.87 135.03 199.98 129.74 157.38 131.93 132.68 140.79 161.36 142.54 209.99 141.66 240.43 147.33"/><polygon class="cls-4" points="161.36 142.54 213.13 196.88 184.35 223.72 133.56 178.81 161.36 142.54"/><polygon class="cls-6" points="246.69 196.92 231.91 172.41 213.13 196.88 246.69 196.92"/><polygon class="cls-3" points="246.69 196.92 214.18 229.57 184.35 223.72 213.13 196.88 246.69 196.92"/><polygon class="cls-7" points="231.91 172.41 213.13 196.88 179.61 161.69 209.99 141.66 231.91 172.41"/><polygon class="cls-8" points="231.91 172.41 246.08 155.26 240.43 147.33 209.99 141.66 231.91 172.41"/><polygon class="cls-4" points="161.36 142.54 209.99 141.66 179.61 161.69 161.36 142.54"/><polygon class="cls-9" points="217.87 135.03 209.99 141.66 199.98 129.74 217.87 135.03"/><polygon class="cls-8" points="161.36 142.54 133.56 178.81 103.86 192.1 99.42 188.61 98.19 180.53 129.09 139.89 161.36 142.54"/><polygon class="cls-3" points="133.56 178.81 103.86 192.1 117.91 213.79 133.56 178.81"/><polygon class="cls-10" points="246.69 196.92 230.41 226.86 214.18 229.57 233.71 210.02 246.69 196.92"/><polygon class="cls-6" points="214.18 229.57 184.35 223.72 151.94 224.66 180.3 233.46 214.18 229.57"/><polygon class="cls-3" points="151.94 224.66 180.3 233.46 148.36 231.24 151.94 224.66"/><polygon class="cls-6" points="184.35 223.72 133.56 178.81 151.94 224.66 184.35 223.72"/><polygon class="cls-3" points="246.08 173.66 247.63 166.72 256.65 166.01 246.08 173.66"/><polygon class="cls-3" points="246.51 177.55 251.34 184.87 258.21 183.03 246.51 177.55"/><polygon class="cls-8" points="246.51 177.55 246.08 173.66 256.65 166.01 260.03 180.1 258.21 183.03 246.51 177.55"/><polygon class="cls-3" points="256.65 166.01 260.03 180.1 263.28 172.03 256.65 166.01"/><polygon class="cls-2" points="107.01 127.36 111.88 124.73 114.56 124.88 115.78 127.55 115.24 130.62 113.39 131.16 107.01 127.36"/><polygon class="cls-8" points="82.63 161.56 72.98 162.96 66.55 158.42 67.53 156.2 74.63 154.46 82.63 161.56"/><polygon class="cls-11" points="67.53 156.2 66.38 151.74 74.63 154.46 67.53 156.2"/><polygon class="cls-5" points="66.38 151.74 88.41 133.51 100.87 137.38 74.63 154.46 66.38 151.74"/><polygon class="cls-8" points="88.41 133.51 95.97 128.16 102.68 126.74 100.87 137.38 88.41 133.51"/><polygon class="cls-4" points="102.68 126.74 100.87 137.38 115.68 134.45 111.84 128.22 102.68 126.74"/><polygon class="cls-4" points="74.63 154.46 82.63 161.56 102.27 160.98 90.72 143.82 74.63 154.46"/><polygon class="cls-8" points="90.77 143.85 100.87 137.38 115.68 134.45 118.33 154.17 102.32 161.01 90.77 143.85"/><polygon class="cls-8" points="89.24 169.75 82.63 161.56 102.27 160.98 106.64 171.63 89.24 169.75"/><polygon class="cls-3" points="102.27 160.98 106.64 171.63 118.28 154.13 102.27 160.98"/><polygon class="cls-5" points="71.66 168.16 72.76 171.52 78.26 174.18 78.1 168.49 72.59 167.13 71.66 168.16"/><polygon class="cls-5" points="66.55 158.42 72.98 162.96 68.14 162.12 66.55 158.42"/><polygon class="cls-3" points="87.26 167.27 78.26 174.18 89.24 169.75 87.26 167.27"/><polygon class="cls-12" points="101.86 138.7 106.07 136.64 109.78 138.29 105.98 140.85 101.86 138.7"/><polygon class="cls-8" points="76.09 168.35 82.63 161.56 87.26 167.27 78.26 174.18 76.09 168.35"/><polygon class="cls-13" points="72.59 167.13 77.05 162.38 82.63 161.56 76.09 168.35 73.77 168.65 72.59 167.13"/><polygon class="cls-14" points="113.59 131.09 115.24 130.62 125.71 128.6 119.86 132.11 115.68 134.45 113.59 131.09"/><polygon class="cls-4" points="115.68 134.45 125.71 128.6 118.28 139.29 115.68 134.45"/><polygon class="cls-8" points="118.28 139.29 125.71 128.6 129.59 125.89 137.4 124.22 138.55 125.93 134.59 133.61 129.72 138.27 124.68 140.61 122.08 143 121.06 139.46 118.28 139.29"/><polygon class="cls-2" points="124.61 138.12 125.27 136.55 126.38 136.1 127.29 133.22 126.99 130.84 136.34 126.44 131.24 133.62 128.45 136.71 124.61 138.12"/><polygon class="cls-4" points="115.68 134.45 118.28 154.13 122.08 143 121.06 139.46 115.68 134.45"/><polygon class="cls-15" points="67.08 152.43 67.63 154.58 71 153.74 67.08 152.43"/><polygon class="cls-16" points="106.16 138.72 107.14 137.94 108.37 138.35 106.65 139.62 106.16 138.72"/><polygon class="cls-3" points="99.55 179.4 95.8 170.48 106.64 171.63 119.73 179.75 99.55 179.4"/><polygon class="cls-1" points="106.64 171.63 118.28 154.13 134.98 158.52 119.73 179.75 106.64 171.63"/><polygon class="cls-3" points="118.28 154.13 122.08 143 134.98 158.52 118.28 154.13"/><polygon class="cls-17" points="134.98 158.52 140.47 141.09 133 135.14 124.68 140.61 122.08 143 134.98 158.52"/><polygon class="cls-8" points="136.28 210.68 145.77 263.18 151.57 267.35 145.57 203.98 136.28 210.68"/><polygon class="cls-2" points="151.15 263.44 145.57 203.98 148.15 209.77 151.81 221.31 151.15 263.44"/><polygon class="cls-2" points="145.67 262.95 151.57 267.35 151.76 269.35 148.07 270.57 145.49 269.2 145.67 262.95"/><polygon class="cls-8" points="215.53 205.11 225.65 261.08 231.83 265.52 225.44 197.97 215.53 205.11"/><polygon class="cls-2" points="231.39 261.36 225.44 197.97 228.19 204.14 234.62 217.97 231.39 261.36"/><polygon class="cls-2" points="225.55 260.83 231.83 265.52 232.04 267.65 228.1 268.95 225.35 267.49 225.55 260.83"/></svg>