<svg id="Ebene_1" data-name="Ebene 1" xmlns="http://www.w3.org/2000/svg" viewBox="0 0 521.01 655.63"><defs><style>.cls-1{fill:#72594b;}.cls-2{fill:#599980;}.cls-3{fill:#649e86;}.cls-4{fill:#70a38d;}.cls-5{fill:#27886b;}.cls-6{fill:#007b59;}.cls-7{fill:#80695c;}</style></defs><title>Baum_1</title><polygon class="cls-1" points="191.66 321.42 209.59 344.2 236.36 362.21 243.58 383.86 247.28 393.83 242.17 421.94 241.25 426.99 237.09 419.17 236.68 430.55 239.87 443.3 239.87 489.61 247.36 496.51 256.34 489.4 256.23 435.32 260.57 408.4 287.85 371.85 288.73 357.95 285.85 352.35 280.64 366.96 262.12 386.83 253.68 367.94 253.11 357.36 251.4 350.85 249.38 358.32 243.91 346.09 252.07 322.51 244.64 294.62 238.77 295.65 239.87 321.04 232.29 339.71 232.29 339.71 232.47 347.14 215.96 336.73 196.37 318.65 191.66 321.42"/><polygon class="cls-2" points="266.92 347.63 299.26 321 337.32 361.9 295.06 369.08 266.92 347.63"/><polygon class="cls-2" points="299.26 321 308.78 276.28 352.54 311.48 337.32 361.9 299.26 321"/><polygon class="cls-3" points="308.78 276.28 273.04 298.96 266.92 347.63 299.26 321 308.78 276.28"/><polygon class="cls-2" points="183.77 245.87 222.77 245.87 266.54 217.33 204.22 225.23 183.77 245.87"/><polygon class="cls-4" points="183.77 245.87 190.43 283.93 232.29 298.2 222.77 245.87 183.77 245.87"/><polygon class="cls-5" points="227.1 269.66 232.29 298.2 252.44 288.61 283.66 257.29 266.54 217.33 214.62 245.87 227.1 269.66"/><polygon class="cls-6" points="232.29 298.2 252.44 288.61 283.66 257.29 255.09 293.02 232.29 298.2"/><polygon class="cls-5" points="299.26 321 352.54 311.48 337.32 361.9 302.12 324.06 299.26 321"/><polygon class="cls-4" points="273.04 298.96 299.26 321 266.92 347.63 273.04 298.96"/><polygon class="cls-5" points="308.78 276.28 352.54 311.48 338.2 293.88 308.78 276.28"/><polygon class="cls-5" points="299.26 321 318.29 365.12 337.32 361.9 299.26 321"/><polygon class="cls-3" points="145.71 283.45 174.25 302.48 204.22 281.55 174.97 269.66 145.71 283.45"/><polygon class="cls-4" points="145.71 283.45 145.71 315.8 157.93 330.47 174.97 334.83 174.25 302.48 145.71 283.45"/><polygon class="cls-5" points="174.25 302.48 204.22 281.55 212.31 311.99 189.47 334.83 174.97 334.83 174.25 302.48"/><polyline class="cls-2" points="157.93 330.47 174.25 302.48 189.47 334.83 174.97 334.83"/><polygon class="cls-3" points="214.62 245.87 227.1 269.66 227.1 239.01 214.62 245.87"/><polygon class="cls-7" points="236.01 340.26 244.52 321.16 242.9 295.79 239.57 296.55 240.63 321.21 233.05 339.88 233.49 347.63 237.2 361.8 249.59 394.02 241.57 434.44 240.9 490.56 246.87 496.06 247.86 437.59 254.9 395.56 236.73 347.63 236.01 340.26"/><polygon class="cls-7" points="197.51 326.79 210.88 343.06 236.41 358.77 234.91 353.06 212.31 340.71 198.78 325.52 197.51 326.79"/><polygon class="cls-7" points="238.05 424.09 238.05 430.62 241.45 444.31 241.57 434.44 238.05 424.09"/><polygon class="cls-7" points="263.17 388.45 281.53 368.34 284.33 360.9 285.29 361.63 283.43 369.08 264.12 391.48 263.17 388.45"/></svg>