<svg id="Ebene_1" data-name="Ebene 1" xmlns="http://www.w3.org/2000/svg" viewBox="0 0 861.97 955.91"><defs><style>.cls-1{fill:#634e42;}.cls-2{fill:#499070;}.cls-3{fill:#378a67;}.cls-4{fill:#005338;}.cls-5{fill:#005f3b;}.cls-6{fill:#006d45;}.cls-7{fill:#007d55;}.cls-8{fill:#12825c;}.cls-9{fill:#468f6e;}.cls-10{fill:#5c987a;}.cls-11{fill:#675246;}</style></defs><title>Zeichenfläche 4</title><polygon class="cls-1" points="143.4 584.86 146.58 589.59 153.76 591.53 159.06 597.02 174.45 603.87 180.07 605.16 188.31 614.79 192.76 620.5 200.28 624.22 204.8 626.38 208.36 628.42 225.13 635.65 236.28 643.75 240.39 649.03 242.85 652.2 254.6 657.85 271.78 661.51 275.22 659.91 289.79 659.25 294.82 660.93 299.08 661.01 308.67 669.53 312.24 674.15 317.49 680.23 326.93 684.01 335.74 690.09 342.67 692.19 346.65 691.35 350.43 689.67 355.47 691.14 361.95 692.74 371.23 700.13 374.06 705.64 382.4 709.89 389.17 713.82 396.1 715.24 400.83 713.82 409.36 707.29 413.89 706.02 415.88 704.43 423.61 701.6 429.5 700.64 434.47 699.84 440.62 695.5 443.27 692.52 445.76 691.81 450.51 684.75 457.75 682.11 460.19 681.65 468.77 680.23 480.99 681.11 490.04 680.23 493.22 681.46 496.81 680.89 508.01 677.22 511.31 677.74 516.86 677.22 527.68 671.39 531.69 671.14 541.7 667.9 550.45 663.95 555.23 663.51 557.6 662.32 573.87 663.43 576.25 662.51 589.31 651.89 595.48 650.41 609.75 636.73 610.78 634.01 627.14 627.41 630.45 627.46 632.76 626.17 640.52 618.35 642.53 614.94 646.48 613.48 656.68 608.88 666.22 603.59 678.5 596.78 698.54 593.49 702.4 589.39 719.86 577.78 720.42 573.08 721.95 568.49 723.69 564.48 724.46 557.34 718.31 550 415.87 528.9 145.03 570.67 142.12 578.53 143.4 584.86"/><polygon class="cls-2" points="136.19 574.51 138.76 568.05 149.69 562.87 164.98 557.95 195.02 543.87 238.88 479.94 271.81 451.72 308.03 380.45 341.35 368.01 384.64 316.27 380.47 298.47 408 299.92 442.77 297.02 470.3 289.77 478.99 320.2 489.33 343.38 525.6 351.19 555.04 380.56 607.93 443.35 670.23 518.69 728.19 555.79 728.19 560 719.96 564.3 710.2 570.54 693.3 576.64 686.67 575.33 683.35 578.5 661.56 577.17 655.51 574.67 624.32 575.19 607.71 576.65 595.67 575.17 583.15 574.18 571.6 568.43 562.87 573.68 546.72 575.99 526.77 587.04 501.41 593.25 486.38 602.37 479.79 604.02 467.05 605.41 461.08 607.52 453.49 608.82 448.18 611.61 444.41 612.45 438.6 608.76 430.98 608.39 415.42 613.35 409.47 615.17 396.57 615.99 391.11 613.68 383.45 609.24 367.54 604.09 361.48 600.5 342.5 598.18 317.05 594.72 307.4 598.41 299.05 597.09 288.07 599.51 279.29 595.56 269.63 594.46 259.09 595.12 253.05 590.7 246.91 591.71 240.17 588.34 226.13 592.08 218.46 589.99 213.21 590.02 207.6 587.03 197.68 588.71 192.58 588.23 186.01 586.59 178.39 585.06 169.48 586.7 157.76 584.01 147.91 579.8 140.88 579.09 138.11 576.32 136.19 574.51"/><polygon class="cls-3" points="136.19 565.68 138.76 559.22 147.37 546.96 166.84 534.8 199.88 523.86 238.88 479.94 271.81 442.89 318.33 375.92 341.35 359.18 384.64 307.44 380.47 289.63 408 291.08 442.77 288.18 470.3 280.94 478.99 311.37 489.33 334.55 525.6 351.19 555.04 380.56 607.93 434.51 670.23 509.85 728.19 546.96 728.19 551.17 719.96 555.47 710.2 561.71 693.3 567.81 686.67 566.5 683.35 569.67 661.56 568.34 655.51 565.84 624.32 566.35 607.71 567.82 595.67 566.33 583.15 565.35 571.6 559.6 562.87 564.85 546.72 567.16 526.77 578.2 501.41 584.42 486.38 593.53 479.79 595.18 467.05 596.57 461.08 598.68 453.49 599.99 448.18 602.78 444.41 603.62 438.6 599.93 430.98 599.55 415.42 604.51 409.47 606.33 396.57 607.16 391.11 604.84 383.45 600.41 367.54 595.25 361.48 591.67 342.5 589.35 317.05 585.89 307.4 589.58 299.05 588.26 288.07 590.67 279.29 586.72 269.63 585.62 259.09 586.28 253.05 581.87 246.91 582.87 240.17 579.5 226.13 583.25 218.46 581.15 213.21 581.19 207.6 578.19 197.68 579.88 192.58 579.39 186.01 577.75 178.39 576.23 169.48 577.87 157.76 575.18 147.91 570.97 140.88 570.25 138.11 567.49 136.19 565.68"/><path class="cls-4" d="M469.89,266.35s39.22,56,12.64,56c-11.19,0-96.53,38.15-96.53,38.15l-11-57.56,18.29-38.64,2.09,2,7.2-6.1,4.92,3.63,9.23-4.19,5.37,3.08,7.09-3.08L436,262l3.73,3.28L451,263.22l4.31,2.09L464,262Z"/><polygon class="cls-5" points="385.87 282.48 393.33 264.27 376.88 293.29 368.7 306.36 358.58 321.92 340.36 349.29 337.48 353.62 330.7 361.92 332.65 364.73 382.98 413.26 555.04 380.56 524.99 344.93 515.14 332.25 500.74 318.04 491.13 301.5 469.89 266.35 477.29 295.08 462.05 274.07 458.07 286.31 449.3 271.21 444.68 298.17 428.51 274.29 421.28 290.46 420.85 274.54 412.33 278.91 402.68 293.62 399.15 286.83 392.24 299.27 392.98 277.01 385.87 282.48"/><polygon class="cls-6" points="281.36 424.08 326.23 385.58 353.37 406.62 367.62 416.12 385.98 419.51 409.29 437.55 421.07 437.55 423.95 423.58 429.43 376.58 409.02 388.3 395.45 388.98 373.73 386.26 363.55 379.47 347.31 365.99 330.7 361.92 317.89 369.47 304.29 378.54 289.91 404.43 281.36 424.08"/><polygon class="cls-7" points="710.96 532.61 703.47 522.54 680.52 506.58 659.63 487.41 650.53 477.95 631.92 460.75 626.45 450.57 617.17 437.52 609.42 430.75 598.59 416.58 585.81 399.64 570.53 373.25 563.24 361.22 561.07 360.47 555.04 364.59 549.31 370.93 546.1 369.96 541.39 371.06 529.46 374.6 523.07 371.39 517.87 367.73 513.83 366.75 494.23 348.95 489.8 346.73 482.22 337.45 478.39 333.49 474.74 332.87 465.14 343.98 461.13 346.52 450.89 360.47 437.22 376.3 429.43 376.58 424.84 380.51 398.87 416.3 387.17 417.29 372.07 410.43 360.19 407.54 352.82 398 332.33 384.18 326.5 382.7 301.56 384.34 296.06 393.36 289.91 404.43 281.36 419.58 274.59 430.42 267.27 446.56 276.95 444.94 285.02 451.75 301.53 450.57 315.87 457.74 338.09 460.3 356.95 470.61 426.52 428.26 461.25 428.26 499.98 437.46 539.68 423.21 578.39 478.31 606.56 492.6 638.15 525.46 653.15 537.69 694 537.69 719.02 546.96 728.19 546.96 710.96 532.61"/><polygon class="cls-8" points="202.19 511.75 222.63 480.48 260.18 442.79 273.66 439.44 307.24 448.07 323.75 455.15 342.61 458.69 361.48 466.94 276.58 530.61 207.31 546.96 175.81 548.04 167.86 545.13 170.67 540.39 175.6 538.38 186.09 532.01 202.19 511.75"/><polygon class="cls-9" points="207.31 546.96 234.79 531.57 282.36 516.36 306.89 497.46 345.81 477.95 367.81 460.24 383.61 450.37 396.3 437.46 409.27 430.9 417.17 428.26 430.98 428.26 456.09 425.55 466.45 427.06 487.68 437.46 499.98 437.46 510.96 453.62 435.98 517.73 417.4 549.8 375.6 559.61 329.25 557.19 283.57 548.22 248.08 550.26 231.77 543.65 207.31 546.96"/><polygon class="cls-10" points="403.6 543.65 433.29 512.98 447.35 498.47 455.89 482.65 477.46 464.11 485.7 456.83 493.62 446.38 511.11 426.48 523.38 414.39 530.35 411.54 536.68 411.54 545.77 409.89 556.6 415.8 573.35 439.92 580.98 444.05 606.84 470.61 628.13 481.83 646.57 498.25 658.53 505.91 678.15 521.23 709.74 546.96 684.85 551.38 670.02 548.99 658.53 550.42 625.79 546.96 607.36 542.79 589.71 535.73 581.08 532.59 555.2 543.65 543.17 546.96 532.45 542 505.79 543.65 486.18 538.08 442.89 553.77 431.14 552.48 408.92 549.85 403.6 543.65"/><polygon class="cls-11" points="200.4 599.82 208.88 595.15 235.45 597.68 241.49 604.44 248.4 610.24 266.24 611.84 277.25 611.82 282.93 616.78 282.93 622.85 282.95 641.06 277.36 646.01 270.97 651.66 261.55 656.17 244.67 662.65 238.19 659.71 227.79 645.58 225.13 635.65 208.36 628.42 199.53 617.7 195.73 613.17 200.4 599.82"/><polygon class="cls-11" points="481.81 633.57 473.33 628.9 446.76 631.43 440.72 638.19 433.81 644 415.97 645.59 404.95 645.57 399.27 650.53 399.27 656.6 399.26 674.81 404.85 679.76 411.24 685.41 420.66 689.93 437.54 696.4 444.01 693.46 454.42 679.33 457.08 669.4 473.85 662.17 482.68 651.45 486.48 646.92 481.81 633.57"/></svg>