<svg id="Ebene_1" data-name="Ebene 1" xmlns="http://www.w3.org/2000/svg" viewBox="0 0 414.98 464.37"><defs><style>.cls-1{fill:#715a5e;}.cls-2{fill:#836e71;}.cls-3{fill:#ca94b1;}.cls-4{fill:#ce9fb9;}.cls-5{fill:#d6afc5;}.cls-6{fill:#be799e;}</style></defs><title>Baum</title><polygon class="cls-1" points="258.22 187.7 240.29 210.48 213.51 228.48 206.3 250.13 202.6 260.11 207.71 288.21 208.63 293.26 212.79 285.45 213.19 296.82 210 309.58 210 355.89 202.51 362.79 193.53 355.68 193.65 301.6 189.3 274.68 162.03 238.13 161.14 224.22 164.02 218.63 169.24 233.23 187.75 253.11 196.2 234.21 196.76 223.63 198.47 217.13 200.5 224.6 205.97 212.36 197.8 188.79 205.23 160.89 211.1 161.93 210 187.32 217.59 205.99 217.59 205.99 217.4 213.41 233.91 203.01 253.5 184.93 258.22 187.7"/><polygon class="cls-2" points="208.48 212.39 199.31 188.82 206.98 162.07 208.42 162.07 203.46 188.82 211.53 211.31 192.98 258.88 200.51 300.48 202.03 359.36 195.56 355.32 195.86 301.17 188.17 258.87 208.48 212.39"/><polygon class="cls-2" points="253.77 189.59 237.28 206.72 214.88 221.57 216.38 215.86 235.98 204.01 252.51 188.32 253.77 189.59"/><polygon class="cls-2" points="211.82 290.37 211.82 296.89 208.42 310.58 208.3 300.72 211.82 290.37"/><polygon class="cls-3" points="186.93 234.79 159.77 212.43 127.83 246.77 163.3 252.79 186.93 234.79"/><polygon class="cls-4" points="159.77 212.43 151.79 174.89 115.05 204.44 127.83 246.77 159.77 212.43"/><polygon class="cls-3" points="151.79 174.89 181.79 193.93 186.93 234.79 159.77 212.43 151.79 174.89"/><polygon class="cls-5" points="159.77 212.43 115.05 204.44 127.83 246.77 157.38 215 159.77 212.43"/><polygon class="cls-6" points="181.79 193.93 159.77 212.43 186.93 234.79 181.79 193.93"/><polygon class="cls-5" points="151.79 174.89 115.05 204.44 127.09 189.67 151.79 174.89"/><polygon class="cls-4" points="159.77 212.43 143.8 249.47 127.83 246.77 159.77 212.43"/><polygon class="cls-4" points="166.17 126.01 199.55 126.01 237 101.58 183.67 108.34 166.17 126.01"/><polygon class="cls-5" points="166.17 126.01 171.87 158.57 207.69 170.79 199.55 126.01 166.17 126.01"/><polygon class="cls-6" points="203.25 146.36 207.69 170.79 224.94 162.58 251.66 135.78 237 101.58 192.57 126.01 203.25 146.36"/><polygon class="cls-3" points="207.69 170.79 224.94 162.58 251.66 135.78 227.21 166.35 207.69 170.79"/><polygon class="cls-3" points="192.57 126.01 203.25 146.36 203.25 120.14 192.57 126.01"/><polygon class="cls-4" points="301.32 153.51 271.53 173.37 240.25 151.53 270.78 139.11 301.32 153.51"/><polygon class="cls-6" points="301.32 153.51 301.32 187.28 288.57 202.59 270.78 207.14 271.53 173.37 301.32 153.51"/><polygon class="cls-5" points="271.53 173.37 240.25 151.53 231.81 183.3 255.64 207.14 270.78 207.14 271.53 173.37"/><polyline class="cls-4" points="288.57 202.59 271.53 173.37 255.64 207.14 270.78 207.14"/></svg>