<svg id="Ebene_1" data-name="Ebene 1" xmlns="http://www.w3.org/2000/svg" viewBox="0 0 423.99 464.37"><defs><style>.cls-1{fill:#715a5e;}.cls-2{fill:#836e71;}.cls-3{fill:#407ba2;}.cls-4{fill:#7590b0;}.cls-5{fill:#5885ac;}.cls-6{fill:#8299b7;}.cls-7{fill:#32769e;}.cls-8{fill:#7792b1;}</style></defs><title>Baum</title><polygon class="cls-1" points="268.64 202.28 250.71 225.06 223.94 243.07 216.72 264.72 213.02 274.7 218.13 302.8 219.05 307.85 223.21 300.04 223.62 311.41 220.43 324.17 220.43 370.48 212.94 377.38 203.96 370.26 204.07 316.18 199.73 289.27 172.45 252.72 171.56 238.81 174.44 233.22 179.66 247.82 198.17 267.69 206.62 248.8 207.19 238.22 208.9 231.71 210.92 239.19 216.39 226.95 208.22 203.37 215.66 175.48 221.53 176.52 220.43 201.9 228.01 220.57 228.01 220.57 227.82 228 244.34 217.59 263.93 199.52 268.64 202.28"/><polygon class="cls-2" points="218.9 226.98 209.74 203.4 217.4 176.65 218.84 176.65 213.88 203.4 221.96 225.9 203.41 273.47 210.93 315.06 212.45 373.94 205.98 369.9 206.29 315.76 198.59 273.45 218.9 226.98"/><polygon class="cls-2" points="264.2 204.17 247.71 221.31 225.31 236.15 226.8 230.45 246.41 218.6 262.93 202.91 264.2 204.17"/><polygon class="cls-2" points="222.25 304.96 222.25 311.48 218.85 325.17 218.73 315.31 222.25 304.96"/><polygon class="cls-3" points="196.25 251.36 167.39 227.59 133.43 264.1 171.14 270.5 196.25 251.36"/><polygon class="cls-4" points="167.39 227.59 158.9 187.7 119.85 219.11 133.43 264.1 167.39 227.59"/><polygon class="cls-5" points="158.9 187.7 190.79 207.94 196.25 251.36 167.39 227.59 158.9 187.7"/><polygon class="cls-6" points="167.39 227.59 119.85 219.11 133.43 264.1 164.84 230.33 167.39 227.59"/><polygon class="cls-7" points="190.79 207.94 167.39 227.59 196.25 251.36 190.79 207.94"/><polygon class="cls-8" points="158.9 187.7 119.85 219.11 132.65 203.4 158.9 187.7"/><polygon class="cls-5" points="167.39 227.59 150.41 266.97 133.43 264.1 167.39 227.59"/><polygon class="cls-5" points="262.08 138.65 231.35 138.65 196.87 116.17 245.97 122.39 262.08 138.65"/><polygon class="cls-7" points="262.08 138.65 256.83 168.63 223.85 179.88 231.35 138.65 262.08 138.65"/><polygon class="cls-6" points="227.94 157.39 223.85 179.88 207.98 172.32 183.38 147.65 196.87 116.17 237.78 138.65 227.94 157.39"/><polygon class="cls-8" points="223.85 179.88 207.98 172.32 183.38 147.65 205.89 175.8 223.85 179.88"/><polygon class="cls-4" points="237.78 138.65 227.94 157.39 227.94 133.25 237.78 138.65"/><polygon class="cls-5" points="319.56 162.01 284.51 185.37 247.71 159.67 283.63 145.07 319.56 162.01"/><polygon class="cls-7" points="319.56 162.01 319.56 201.73 304.55 219.74 283.63 225.09 284.51 185.37 319.56 162.01"/><polygon class="cls-4" points="284.51 185.37 247.71 159.67 237.78 197.06 265.82 225.09 283.63 225.09 284.51 185.37"/><polyline class="cls-3" points="304.55 219.74 284.51 185.37 265.82 225.09 283.63 225.09"/></svg>