<svg id="Ebene_1" data-name="Ebene 1" xmlns="http://www.w3.org/2000/svg" viewBox="0 0 470.61 595.28"><defs><style>.cls-1{fill:#a97b7f;}.cls-2{fill:#a57679;}.cls-3{fill:#9b666b;}.cls-4{fill:#85474f;}.cls-5{fill:#9f6c71;}.cls-6{fill:#925a60;}.cls-7{fill:#90575d;}.cls-8{fill:#692430;}.cls-9{fill:#976066;}.cls-10{fill:#9e6a6e;}.cls-11{fill:#420e18;}.cls-12{fill:#1e1e1c;}.cls-13{fill:#fff;}.cls-14{fill:#a37175;}</style></defs><title>Insel_2</title><polygon class="cls-1" points="112.91 350.85 107.37 310.5 107.37 278.45 122.8 254.71 117.65 283.59 115.08 320.92 112.91 350.85"/><polygon class="cls-2" points="122.8 254.71 146.93 240.86 175.02 264.2 174.23 335.42 137.42 359.28 115.08 409.41 112.91 369.84 112.91 350.85 115.08 278.69 122.8 254.71"/><polygon class="cls-3" points="137.42 359.28 123.96 383.27 135.06 396.75 143.96 375.31 150.89 363.91 137.42 359.28"/><polygon class="cls-3" points="112.91 369.84 108.19 391.78 107.37 411.2 115.08 409.41 131.9 407.43 115.08 409.41 112.91 369.84"/><polygon class="cls-4" points="110 340.68 104.52 350.85 99.46 324.21 87.71 295.86 93.43 267.31 111.71 248.05 128.67 240.86 122.8 254.71 107.37 278.45 107.37 294.52 108.8 320.92 110 340.68"/><polygon class="cls-1" points="128.67 240.86 122.8 254.71 146.93 240.86 154 232.4 128.67 240.86"/><polygon class="cls-1" points="154 232.4 146.93 240.86 175.02 264.2 210.85 238.51 194.85 232.4 154 232.4"/><polygon class="cls-5" points="175.02 264.2 178.58 297.81 223.27 323.79 270.44 305.89 276.12 269.46 252.96 243.56 210.85 238.51 175.02 264.2"/><polygon class="cls-6" points="178.58 297.81 175.49 324.58 198.43 344.84 223.27 323.79 178.58 297.81"/><polygon class="cls-7" points="223.27 323.79 198.43 344.84 241.59 349.67 223.27 323.79"/><polygon class="cls-3" points="223.27 323.79 270.44 305.89 256.54 336.73 241.59 349.67 223.27 323.79"/><polygon class="cls-2" points="252.96 243.56 276.12 269.46 305.18 248.3 276.12 242.51 252.96 243.56"/><polygon class="cls-1" points="248.62 343.58 259.12 354.87 279.07 348.16 301.36 352.93 312.31 349.23 323.97 325.89 270.44 305.89 256.54 336.73 248.62 343.58"/><polygon class="cls-8" points="256.54 336.73 259.12 354.87 248.62 343.58 256.54 336.73"/><polygon class="cls-1" points="270.44 305.89 276.12 269.46 305.18 248.3 341.64 304.33 323.97 325.89 270.44 305.89"/><polygon class="cls-3" points="341.64 304.33 354.72 285.78 361.61 264.2 312.13 243.37 305.18 248.3 333.39 292.59 341.64 304.33"/><polygon class="cls-9" points="312.13 243.37 315.14 229.94 366.91 228 365.32 246.2 361.61 264.2 312.13 243.37"/><polygon class="cls-6" points="315.14 229.94 321.32 187 346.94 194.07 365.67 195.66 370.62 192.66 366.91 228 315.14 229.94"/><polygon class="cls-3" points="321.32 187 321.32 171.46 325.21 152.37 332.1 145.13 334.22 164.03 333.39 182.59 346.94 194.07 321.32 187"/><polygon class="cls-1" points="325.21 152.37 322.91 126.4 326.27 122.16 335.81 134.53 332.1 145.13 325.21 152.37"/><polygon class="cls-1" points="361.61 132.23 369.03 120.21 372.56 118.97 375.57 126.4 374.51 135.76 372.21 137.26 361.61 132.23"/><polygon class="cls-8" points="335.81 134.53 339.52 132.41 361.61 132.23 365.11 133.89 372.21 137.26 378.75 145.66 377.87 155.02 374.51 155.91 364.97 149.54 360.73 149.72 358.61 156.79 352.95 158.56 344.82 154.84 337.4 154.84 332.45 149.37 332.1 145.13 335.81 134.53"/><polygon class="cls-2" points="332.45 149.37 329.36 162.17 333.39 182.59 346.94 194.07 365.67 195.66 370.62 192.66 376.81 182.41 376.45 174.99 358.61 156.79 352.95 158.56 344.82 154.84 337.4 154.84 332.45 149.37"/><polygon class="cls-1" points="259.12 354.87 259.12 393.98 266.14 418.38 280.03 415.01 289.22 416.81 289.22 410.53 296.17 401.1 301.36 352.93 279.07 348.16 259.12 354.87"/><polygon class="cls-9" points="237.45 349.67 239.02 411.2 248.62 429.81 262.11 415.69 264.84 413.85 259.12 393.98 259.12 354.87 248.62 343.58 237.45 349.67"/><polygon class="cls-7" points="239.02 411.2 241.59 436.75 241.59 461.41 248.62 471.49 257.17 471.49 264.05 467.98 263.41 461.15 257.17 453.56 262.11 415.69 248.62 424.39 239.02 411.2"/><polygon class="cls-2" points="266.14 418.38 270.06 455.62 277.12 469.25 286.3 472.84 296.17 470.37 294.83 464.55 288.58 451.32 289.22 416.81 280.03 415.01 266.14 418.38"/><polygon class="cls-4" points="135.06 396.75 137.72 434.51 148.7 462.75 153.63 466.56 153.63 469.7 140.41 471.49 131.9 460.51 126.74 436.98 128.67 407.81 135.06 396.75"/><polygon class="cls-10" points="143.57 343.14 169.84 319.85 175.02 264.2 178.58 297.81 174.23 335.42 150.89 363.91 137.42 359.28 143.57 343.14"/><polyline class="cls-2" points="210.85 238.51 252.96 243.56 175.02 264.2"/><polygon class="cls-10" points="305.18 318.87 333.39 292.59 341.64 304.33 323.97 325.89 312.31 349.23 301.36 352.93 305.18 318.87"/><polygon class="cls-7" points="123.96 383.27 115.08 409.41 128.67 407.81 135.06 396.75 123.96 383.27"/><polygon class="cls-3" points="107.37 411.2 122.66 464.61 131.9 475.48 141.39 475.48 143.57 470.73 135.06 462.42 128.73 435.13 128.67 407.81 115.08 409.41 107.37 411.2"/><polygon class="cls-7" points="115.08 409.41 128.67 407.81 128.73 435.13 135.06 462.42 143.57 470.73 141.39 475.48 131.9 475.48 122.66 464.61 117.6 436.61 115.08 409.41"/><polygon class="cls-8" points="178.58 297.81 175.49 324.58 198.43 344.84 178.58 297.81"/><polygon class="cls-1" points="305.18 248.3 333.39 292.59 338.29 254.38 312.13 243.37 305.18 248.3"/><polygon class="cls-2" points="315.14 229.94 312.13 243.37 338.29 254.38 338.29 229.94 315.14 229.94"/><polygon class="cls-2" points="321.32 187 315.14 229.94 338.29 229.94 321.32 187"/><polygon class="cls-1" points="358.61 156.79 358.61 164.39 356.49 170.04 359.84 178.88 369.74 182.41 376.45 174.99 377.87 162.97 374.51 155.91 364.97 149.54 360.73 149.72 358.61 156.79"/><polygon class="cls-11" points="361.61 162.97 368.96 160.62 371.86 162.94 375.22 160.32 377.87 162.97 374.69 162.97 372.74 165.8 371.08 165.98 369 163.22 361.61 162.97"/><polygon class="cls-12" points="338.29 158.38 342.88 156.79 346.94 160.32 340.58 160.32 338.29 158.38"/><polygon class="cls-13" points="339.79 158.56 341.31 157.87 340.55 159.6 339.79 158.56"/><polygon class="cls-11" points="370.24 164.2 371.17 168.59 369.12 170.65 364.72 171.49 360.8 169.34 362.39 172.15 365.99 173.92 369.74 173.41 372.62 170.62 375.27 172.94 376.81 172.51 375.53 170.43 373.86 168.78 372.85 163.93 370.24 164.2"/><polygon class="cls-14" points="352.95 158.56 358.61 156.79 358.61 164.39 356.49 170.04 359.84 178.88 369.74 182.41 376.45 174.99 376.81 182.41 370.62 192.66 365.67 195.66 352.95 189.32 349.34 173.92 351.98 163.93 352.95 158.56"/><polygon class="cls-3" points="361.61 162.97 368.03 158.74 375.21 158.56 377.87 162.97 375.22 160.32 371.86 162.94 368.96 160.62 361.61 162.97"/><polygon class="cls-9" points="346.94 194.07 355.07 228 356.49 262.05 356.49 262.05 363.07 228.14 365.67 195.66 346.94 194.07"/><polygon class="cls-3" points="327.75 133.88 329.36 131.35 334.39 138.58 332.1 145.13 329 148.39 327.75 133.88"/><polygon class="cls-3" points="365.11 133.89 368.59 128.52 372.05 127.68 370.44 134.24 368.21 135.5 365.11 133.89"/><polygon class="cls-7" points="159.89 352.93 169.84 319.85 175.49 324.58 174.23 335.42 159.89 352.93"/><polygon class="cls-7" points="115.08 409.41 123.96 383.27 135.06 396.75 128.56 409.41 128.73 435.13 115.08 409.41"/><polygon class="cls-7" points="248.62 343.58 250.56 391.49 262.11 415.69 264.84 413.85 259.12 393.98 259.12 354.87 248.62 343.58"/><polygon class="cls-3" points="248.62 415.69 250.56 391.49 262.11 415.69 248.62 415.69"/><polygon class="cls-2" points="248.62 415.69 262.11 415.69 257.17 453.56 263.41 461.15 253.87 461.15 248.62 453.5 248.62 415.69"/><polygon class="cls-2" points="261.76 325.13 279.07 348.16 259.12 354.87 256.54 336.73 261.76 325.13"/><polygon class="cls-14" points="279.07 348.16 259.12 354.87 259.12 393.98 266.14 418.38 280.03 415.01 272.56 391.49 279.07 348.16"/><polygon class="cls-9" points="266.14 418.38 280.03 415.01 276.12 452.54 286.3 472.84 277.12 469.25 270.06 455.62 266.14 418.38"/><polygon class="cls-14" points="112.91 350.85 137.42 359.28 123.96 383.27 115.08 409.41 112.91 369.84 112.91 350.85"/></svg>