<svg id="Ebene_1" data-name="Ebene 1" xmlns="http://www.w3.org/2000/svg" viewBox="0 0 374.65 464.37"><defs><style>.cls-1{fill:#877c8a;}.cls-2{fill:#998f9d;}.cls-3{fill:#827786;}.cls-4{fill:#716474;}.cls-5{fill:#8299b7;}.cls-6{fill:#8d8391;}.cls-7{fill:#5f5262;}.cls-8{fill:#90575d;}.cls-9{fill:#423444;}.cls-10{fill:#1e1e1c;}.cls-11{fill:#fff;}.cls-12{fill:#93a6c0;}</style></defs><title>Insel_2</title><polygon class="cls-1" points="326.11 105.24 328.9 111.63 336.84 114.96 341.16 110.1 340.5 107.19 342.69 104.18 341.16 97.73 343.25 94.15 341.71 91.07 334.68 88.92 330.46 93.33 330.46 102.89 326.11 105.24"/><polygon class="cls-2" points="56.59 289.93 51.05 249.57 51.05 217.52 62.13 191.55 61.34 222.67 58.77 260 56.59 289.93"/><polygon class="cls-3" points="62.13 191.55 90.62 179.94 118.71 203.28 117.92 274.5 81.11 298.36 58.77 348.48 56.59 308.92 56.59 289.93 58.77 217.77 62.13 191.55"/><polygon class="cls-4" points="81.11 298.36 67.65 322.34 78.75 335.82 87.65 314.39 94.58 302.98 81.11 298.36"/><polygon class="cls-2" points="56.59 308.92 51.88 330.85 51.05 350.28 58.77 348.48 75.58 346.51 58.77 348.48 56.59 308.92"/><polygon class="cls-5" points="53.69 279.76 48.2 289.93 43.15 263.29 31.4 234.93 37.12 206.39 55.4 187.13 72.36 179.94 62.13 191.55 51.05 217.52 51.05 233.6 52.49 260 53.69 279.76"/><polygon class="cls-2" points="72.36 179.94 62.13 191.55 90.62 179.94 97.69 171.48 72.36 179.94"/><polygon class="cls-6" points="97.69 171.48 90.62 179.94 118.71 203.28 154.54 177.59 138.54 171.48 97.69 171.48"/><polygon class="cls-3" points="118.71 203.28 122.27 236.89 166.96 262.86 214.13 244.97 219.81 208.54 196.65 182.63 154.54 177.59 118.71 203.28"/><polygon class="cls-4" points="122.27 236.89 119.17 263.66 142.12 283.92 166.96 262.86 122.27 236.89"/><polygon class="cls-7" points="166.96 262.86 142.12 283.92 185.28 288.74 166.96 262.86"/><polygon class="cls-4" points="166.96 262.86 214.13 244.97 200.23 275.8 185.28 288.74 166.96 262.86"/><polygon class="cls-2" points="196.65 182.63 219.81 208.54 248.87 187.38 219.81 181.59 196.65 182.63"/><polygon class="cls-2" points="192.31 282.66 202.81 293.95 222.76 287.23 245.04 292 252.1 289.62 267.66 264.97 214.13 244.97 200.23 275.8 192.31 282.66"/><polygon class="cls-7" points="200.23 275.8 202.81 293.95 192.31 282.66 200.23 275.8"/><polygon class="cls-6" points="214.13 244.97 219.81 208.54 248.87 187.38 285.33 243.41 267.66 264.97 214.13 244.97"/><polygon class="cls-4" points="285.33 243.41 298.41 224.86 305.3 203.28 255.82 182.45 248.87 187.38 277.08 231.67 285.33 243.41"/><polygon class="cls-4" points="255.82 182.45 258.83 169.02 310.6 167.08 309.01 185.28 305.3 203.28 255.82 182.45"/><polygon class="cls-3" points="265.01 126.08 265.01 110.53 268.9 91.45 276.09 84.38 277.91 103.11 277.08 121.66 290.63 133.15 265.01 126.08"/><polygon class="cls-2" points="202.81 293.95 202.81 333.06 209.83 357.45 223.72 354.09 232.91 355.88 232.91 349.61 239.86 340.18 245.04 292 222.76 287.23 202.81 293.95"/><polygon class="cls-3" points="181.14 288.74 182.71 350.28 192.31 368.89 205.79 354.76 208.53 352.93 202.81 333.06 202.81 293.95 192.31 282.66 181.14 288.74"/><polygon class="cls-3" points="182.71 350.28 185.28 375.83 185.28 400.48 192.31 410.57 200.86 410.57 207.74 407.05 207.1 400.22 200.86 392.64 205.79 354.76 192.31 363.47 182.71 350.28"/><polygon class="cls-6" points="209.83 357.45 213.75 394.7 220.81 408.33 229.99 411.92 239.86 409.45 238.52 403.62 232.27 390.4 232.91 355.88 223.72 354.09 209.83 357.45"/><polygon class="cls-3" points="78.75 335.82 81.41 373.59 92.39 401.83 97.32 405.64 97.32 408.78 84.1 410.57 75.58 399.59 70.43 376.06 72.36 346.89 78.75 335.82"/><polygon class="cls-4" points="87.26 282.21 113.53 258.93 118.71 203.28 122.27 236.89 117.92 274.5 94.58 302.98 81.11 298.36 87.26 282.21"/><polyline class="cls-2" points="154.54 177.59 196.65 182.63 118.71 203.28"/><polygon class="cls-4" points="248.87 257.95 277.08 231.67 285.33 243.41 267.66 264.97 252.1 289.62 244.88 293.5 248.87 257.95"/><polygon class="cls-8" points="67.65 322.34 58.77 348.48 72.36 346.89 78.75 335.82 67.65 322.34"/><polygon class="cls-2" points="51.05 350.28 66.34 403.68 75.58 414.56 85.08 414.56 87.26 409.81 78.75 401.5 72.42 374.2 72.36 346.89 58.77 348.48 51.05 350.28"/><polygon class="cls-7" points="58.77 348.48 72.36 346.89 72.42 374.2 78.75 401.5 87.26 409.81 85.08 414.56 75.58 414.56 66.34 403.68 61.29 375.69 58.77 348.48"/><polygon class="cls-7" points="122.27 236.89 119.17 263.66 142.12 283.92 122.27 236.89"/><polygon class="cls-3" points="248.87 187.38 277.08 231.67 295.24 199.04 255.82 182.45 248.87 187.38"/><polygon class="cls-1" points="258.83 169.02 255.82 182.45 295.24 199.04 298.76 167.08 258.83 169.02"/><polygon class="cls-6" points="265.01 126.08 258.83 169.02 298.76 167.08 290.63 133.15 277.82 129.62 265.01 126.08"/><polygon class="cls-4" points="290.63 133.15 298.76 167.08 302.65 201.12 300.18 201.12 310.6 167.08 310.04 135.75 290.63 133.15"/><polygon class="cls-9" points="103.58 292 113.53 258.93 119.17 263.66 117.92 274.5 103.58 292"/><polygon class="cls-7" points="58.77 348.48 67.65 322.34 78.75 335.82 72.25 348.48 72.42 374.2 58.77 348.48"/><polygon class="cls-7" points="192.31 282.66 194.25 330.57 205.79 354.76 208.53 352.93 202.81 333.06 202.81 293.95 192.31 282.66"/><polygon class="cls-6" points="192.31 354.76 194.25 330.57 205.79 354.76 192.31 354.76"/><polygon class="cls-6" points="192.31 354.76 205.79 354.76 200.86 392.64 207.1 400.22 197.56 400.22 192.31 392.58 192.31 354.76"/><polygon class="cls-2" points="205.45 264.21 222.76 287.23 202.81 293.95 200.23 275.8 205.45 264.21"/><polygon class="cls-6" points="222.76 287.23 202.81 293.95 202.81 333.06 209.83 357.45 223.72 354.09 216.25 330.57 222.76 287.23"/><polygon class="cls-7" points="209.83 357.45 223.72 354.09 219.81 391.62 229.99 411.92 220.81 408.33 213.75 394.7 209.83 357.45"/><polygon class="cls-6" points="56.59 289.93 81.11 298.36 67.65 322.34 58.77 348.48 56.59 308.92 56.59 289.93"/><polygon class="cls-2" points="275.39 87.99 276.66 81.39 284.41 74.02 287.96 68.81 295.2 62.34 297.74 62.34 297.74 65 294.19 71.99 292.79 78.21 288.35 87.99 286.57 91.07 276.79 90.66 275.39 87.99"/><polygon class="cls-2" points="298.76 74.15 304.85 67.93 309.3 63.86 312.09 63.23 312.09 66.28 310.06 71.23 309.93 74.78 298.76 74.15"/><polygon class="cls-4" points="293.56 74.78 298.76 74.15 309.93 74.78 318.06 74.78 323.18 74.78 329.87 81.13 331.74 86.94 331.74 88.18 329.55 91.07 327.04 93.15 326.12 97.41 319.71 101.45 314.38 99.67 309.81 93.45 304.6 91.07 299.77 91.67 292.79 94.34 286.57 91.07 288.35 87.99 293.56 74.78"/><polygon class="cls-10" points="298.76 96.43 302.83 94.15 308.21 94.15 308.21 96.43 303.49 97.73 298.76 96.43"/><polygon class="cls-10" points="334.31 95.94 337.9 95.13 342.73 95.05 341.16 97.73 334.31 95.94"/><polygon class="cls-10" points="333.17 105.24 337.73 107.19 340.5 107.19 340.83 108.66 337.26 108.35 333.17 105.24"/><polygon class="cls-8" points="313.23 108.15 324.77 110.71 321.36 124.65 321.36 124.65 312.5 113.55 313.23 108.15"/><polygon class="cls-7" points="288.73 91.67 285.87 101.45 312.5 113.55 314.38 99.67 309.81 93.45 304.6 91.07 299.77 91.67 292.79 94.34 288.73 91.67"/><polygon class="cls-7" points="314.38 99.67 308.21 105.24 312.5 113.55 321.36 124.65 327.46 122.49 336.84 114.96 328.9 111.63 326.11 105.24 330.46 102.89 330.46 95.05 330.46 93.33 333.31 89.01 331.74 88.18 327.04 93.15 326.12 97.41 319.71 101.45 314.38 99.67"/><polygon class="cls-7" points="284.24 87.8 286.57 82.36 292.28 73.42 289 83.11 286.8 88.18 284.24 87.8"/><polygon class="cls-1" points="277.91 103.11 293.75 98.8 308.21 105.24 312.5 113.55 312.5 113.55 310.04 135.75 290.63 133.15 277.08 121.66 277.91 103.11"/><polygon class="cls-7" points="276.68 90.45 277.91 103.11 286.03 100.9 288.73 91.67 286.57 91.07 276.68 90.45"/><polygon class="cls-10" points="301.24 98.46 306.35 95.45 309.73 96.96 306.35 100.1 301.24 98.46"/><polygon class="cls-7" points="312.5 113.55 310.04 135.75 321.36 124.65 312.5 113.55"/><polygon class="cls-6" points="331.74 88.18 334.68 88.92 330.46 93.33 327.04 93.15 331.74 88.18"/><polygon class="cls-11" points="303.08 98.09 304.51 97.27 305.19 97.58 303.74 98.29 303.08 98.09"/><polygon class="cls-4" points="293.75 98.8 308.21 105.24 312.5 113.55 311.11 126.08 297.74 112.92 293.75 98.8"/><polygon class="cls-9" points="328.9 111.63 336.84 114.96 327.46 122.49 321.36 124.65 328.9 111.63"/><polygon class="cls-2" points="327.04 93.15 330.46 93.33 334.31 95.94 341.16 97.73 342.69 104.18 340.5 107.19 337.73 107.19 333.17 105.24 330.46 102.89 326.12 97.41 327.04 93.15"/><polygon class="cls-6" points="326.12 97.41 326.11 105.24 330.46 102.89 326.12 97.41"/><polygon class="cls-6" points="327.04 93.15 330.46 93.33 334.31 95.94 330.46 102.89 326.12 97.41 327.04 93.15"/><polygon class="cls-5" points="291.08 81.07 300.12 79.39 298.76 74.15 293.56 74.78 291.08 81.07"/><polygon class="cls-5" points="300.12 79.39 298.76 74.15 309.93 74.78 315.25 73.42 323.18 74.78 329.87 81.13 331.74 86.94 326.11 90.45 319.92 92.15 313.13 88.73 306.22 85.24 300.12 79.39"/><polygon class="cls-12" points="313.97 75.9 318.07 75.9 324.24 76.7 328.77 81.7 330.21 85.13 326.12 88.92 318.38 84.88 312.87 77.61 313.97 75.9"/><polygon class="cls-4" points="331.74 86.94 331.74 88.18 334.68 88.92 341.71 91.07 331.74 86.94"/></svg>