<svg id="Ebene_1" data-name="Ebene 1" xmlns="http://www.w3.org/2000/svg" viewBox="0 0 419.84 464.37"><defs><style>.cls-1{fill:#a57679;}.cls-2{fill:#e5d8d8;}.cls-3{fill:#f1e8e8;}.cls-4{fill:#d6afc5;}.cls-5{fill:#f5efef;}.cls-6{fill:#d5c1c2;}.cls-7{fill:#d1babb;}.cls-8{fill:#f2eaea;}.cls-9{fill:#90575d;}.cls-10{fill:#ece2e3;}.cls-11{fill:#a97b7f;}.cls-12{fill:#1e1e1c;}.cls-13{fill:#9f6c71;}.cls-14{fill:#fff;}.cls-15{fill:#af8386;}.cls-16{fill:#dbbacd;}.cls-17{fill:#9b666b;}</style></defs><title>Insel_2</title><polygon class="cls-1" points="355.11 102.94 357.91 109.33 365.84 112.67 370.16 107.81 369.51 104.9 371.69 101.88 370.16 95.44 372.25 91.85 370.71 88.78 363.68 86.62 359.47 91.04 359.47 100.59 355.11 102.94"/><polygon class="cls-2" points="85.6 287.63 80.06 247.28 80.06 215.23 91.14 189.26 90.34 220.38 87.77 257.7 85.6 287.63"/><polygon class="cls-3" points="91.14 189.26 119.62 177.65 147.71 200.99 146.92 272.2 110.11 296.06 87.77 346.19 85.6 306.63 85.6 287.63 87.77 215.47 91.14 189.26"/><polygon class="cls-2" points="110.11 296.06 96.65 320.05 107.75 333.53 116.65 312.1 123.58 300.69 110.11 296.06"/><polygon class="cls-2" points="85.6 306.63 80.88 328.56 80.06 347.99 87.77 346.19 104.59 344.21 87.77 346.19 85.6 306.63"/><polygon class="cls-4" points="82.69 277.47 77.21 287.63 72.15 260.99 60.4 232.64 66.12 204.1 84.4 184.84 101.36 177.65 91.14 189.26 80.06 215.23 80.06 231.3 81.49 257.7 82.69 277.47"/><polygon class="cls-2" points="101.36 177.65 91.14 189.26 119.62 177.65 126.69 169.19 101.36 177.65"/><polygon class="cls-5" points="126.69 169.19 119.62 177.65 147.71 200.99 183.54 175.29 167.54 169.19 126.69 169.19"/><polygon class="cls-3" points="147.71 200.99 151.27 234.59 195.96 260.57 243.13 242.67 248.81 206.25 225.65 180.34 183.54 175.29 147.71 200.99"/><polygon class="cls-2" points="151.27 234.59 148.18 261.37 171.12 281.63 195.96 260.57 151.27 234.59"/><polygon class="cls-6" points="195.96 260.57 171.12 281.63 214.28 286.45 195.96 260.57"/><polygon class="cls-2" points="195.96 260.57 243.13 242.67 229.23 273.51 214.28 286.45 195.96 260.57"/><polygon class="cls-5" points="225.65 180.34 248.81 206.25 277.87 185.09 248.81 179.29 225.65 180.34"/><polygon class="cls-5" points="221.31 280.36 231.81 291.65 251.76 284.94 274.05 289.71 281.1 287.33 296.66 262.68 243.13 242.67 229.23 273.51 221.31 280.36"/><polygon class="cls-7" points="229.23 273.51 231.81 291.65 221.31 280.36 229.23 273.51"/><polygon class="cls-8" points="243.13 242.67 248.81 206.25 277.87 185.09 314.33 241.12 296.66 262.68 243.13 242.67"/><polygon class="cls-2" points="314.33 241.12 327.41 222.56 334.3 200.99 284.82 180.16 277.87 185.09 306.09 229.38 314.33 241.12"/><polygon class="cls-2" points="284.82 180.16 287.83 166.73 339.6 164.78 338.01 182.98 334.3 200.99 284.82 180.16"/><polygon class="cls-3" points="294.01 123.79 294.01 108.24 297.9 89.16 305.09 82.08 306.91 100.82 306.09 119.37 319.63 130.86 294.01 123.79"/><polygon class="cls-5" points="231.81 291.65 231.81 330.76 238.83 355.16 252.72 351.8 261.91 353.59 261.91 347.32 268.86 337.88 274.05 289.71 251.76 284.94 231.81 291.65"/><polygon class="cls-6" points="210.14 286.45 211.71 347.99 221.31 366.6 234.8 352.47 237.53 350.63 231.81 330.76 231.81 291.65 221.31 280.36 210.14 286.45"/><polygon class="cls-6" points="211.71 347.99 214.28 373.54 214.28 398.19 221.31 408.28 229.87 408.28 236.74 404.76 236.1 397.93 229.87 390.35 234.8 352.47 221.31 361.18 211.71 347.99"/><polygon class="cls-2" points="238.83 355.16 242.75 392.4 249.81 406.04 258.99 409.62 268.86 407.16 267.52 401.33 261.27 388.11 261.91 353.59 252.72 351.8 238.83 355.16"/><polygon class="cls-2" points="107.75 333.53 110.41 371.3 121.39 399.54 126.32 403.35 126.32 406.48 113.1 408.28 104.59 397.3 99.43 373.76 101.36 344.59 107.75 333.53"/><polygon class="cls-2" points="116.26 279.92 142.53 256.64 147.71 200.99 151.27 234.59 146.92 272.2 123.58 300.69 110.11 296.06 116.26 279.92"/><polyline class="cls-5" points="183.54 175.29 225.65 180.34 147.71 200.99"/><polygon class="cls-2" points="277.87 255.65 306.09 229.38 314.33 241.12 296.66 262.68 281.1 287.33 273.88 291.21 277.87 255.65"/><polygon class="cls-9" points="96.65 320.05 87.77 346.19 101.36 344.59 107.75 333.53 96.65 320.05"/><polygon class="cls-2" points="80.06 347.99 95.35 401.39 104.59 412.26 114.08 412.26 116.26 407.52 107.75 399.21 101.42 371.91 101.36 344.59 87.77 346.19 80.06 347.99"/><polygon class="cls-6" points="87.77 346.19 101.36 344.59 101.42 371.91 107.75 399.21 116.26 407.52 114.08 412.26 104.59 412.26 95.35 401.39 90.3 373.4 87.77 346.19"/><polygon class="cls-6" points="151.27 234.59 148.18 261.37 171.12 281.63 151.27 234.59"/><polygon class="cls-10" points="277.87 185.09 306.09 229.38 324.24 196.75 284.82 180.16 277.87 185.09"/><polygon class="cls-8" points="287.83 166.73 284.82 180.16 324.24 196.75 327.76 164.78 287.83 166.73"/><polygon class="cls-5" points="294.01 123.79 287.83 166.73 327.76 164.78 319.63 130.86 306.82 127.32 294.01 123.79"/><polygon class="cls-2" points="319.63 130.86 327.76 164.78 331.65 198.83 329.18 198.83 339.6 164.78 339.05 133.45 319.63 130.86"/><polygon class="cls-7" points="132.58 289.71 142.53 256.64 148.18 261.37 146.92 272.2 132.58 289.71"/><polygon class="cls-6" points="87.77 346.19 96.65 320.05 107.75 333.53 101.25 346.19 101.42 371.91 87.77 346.19"/><polygon class="cls-7" points="221.31 280.36 223.25 328.28 234.8 352.47 237.53 350.63 231.81 330.76 231.81 291.65 221.31 280.36"/><polygon class="cls-2" points="221.31 352.47 223.25 328.28 234.8 352.47 221.31 352.47"/><polygon class="cls-2" points="221.31 352.47 234.8 352.47 229.87 390.35 236.1 397.93 226.56 397.93 221.31 390.29 221.31 352.47"/><polygon class="cls-2" points="234.46 261.92 251.76 284.94 231.81 291.65 229.23 273.51 234.46 261.92"/><polygon class="cls-2" points="251.76 284.94 231.81 291.65 231.81 330.76 238.83 355.16 252.72 351.8 245.25 328.28 251.76 284.94"/><polygon class="cls-6" points="238.83 355.16 252.72 351.8 248.81 389.33 258.99 409.62 249.81 406.04 242.75 392.4 238.83 355.16"/><polygon class="cls-2" points="85.6 287.63 110.11 296.06 96.65 320.05 87.77 346.19 85.6 306.63 85.6 287.63"/><polygon class="cls-11" points="304.39 85.7 305.66 79.09 313.41 71.73 316.96 66.52 324.2 60.05 326.74 60.05 326.74 62.71 323.19 69.7 321.79 75.92 317.35 85.7 315.57 88.78 305.79 88.36 304.39 85.7"/><polygon class="cls-11" points="327.76 71.86 333.86 65.63 338.3 61.57 341.09 60.93 341.09 63.98 339.06 68.93 338.94 72.49 327.76 71.86"/><polygon class="cls-2" points="322.56 72.49 327.76 71.86 338.94 72.49 347.06 72.49 352.18 72.49 358.87 78.84 360.75 84.65 360.75 85.89 358.55 88.78 356.04 90.86 355.12 95.11 348.71 99.16 343.38 97.38 338.81 91.16 333.6 88.78 328.78 89.38 321.79 92.05 315.57 88.78 317.35 85.7 322.56 72.49"/><polygon class="cls-12" points="327.76 94.14 331.83 91.85 337.21 91.85 337.21 94.14 332.49 95.44 327.76 94.14"/><polygon class="cls-12" points="363.31 93.65 366.9 92.83 371.73 92.75 370.16 95.44 363.31 93.65"/><polygon class="cls-12" points="362.17 102.94 366.73 104.9 369.51 104.9 369.84 106.37 366.26 106.06 362.17 102.94"/><polygon class="cls-9" points="342.23 105.86 353.77 108.42 350.36 122.35 350.36 122.35 341.5 111.25 342.23 105.86"/><polygon class="cls-7" points="317.73 89.38 314.87 99.16 341.5 111.25 343.38 97.38 338.81 91.16 333.6 88.78 328.78 89.38 321.79 92.05 317.73 89.38"/><polygon class="cls-6" points="343.38 97.38 337.21 102.94 341.5 111.25 350.36 122.35 356.46 120.2 365.84 112.67 357.91 109.33 355.11 102.94 359.47 100.59 359.47 92.75 359.47 91.04 362.31 86.72 360.75 85.89 356.04 90.86 355.12 95.11 348.71 99.16 343.38 97.38"/><polygon class="cls-13" points="313.24 85.51 315.57 80.07 321.29 71.12 318.01 80.81 315.8 85.89 313.24 85.51"/><polygon class="cls-2" points="306.91 100.82 322.76 96.51 337.21 102.94 341.5 111.25 341.5 111.25 339.05 133.45 319.63 130.86 306.09 119.37 306.91 100.82"/><polygon class="cls-7" points="305.68 88.15 306.91 100.82 315.03 98.61 317.73 89.38 315.57 88.78 305.68 88.15"/><polygon class="cls-12" points="330.25 96.17 335.35 93.16 338.73 94.66 335.35 97.81 330.25 96.17"/><polygon class="cls-7" points="341.5 111.25 339.05 133.45 350.36 122.35 341.5 111.25"/><polygon class="cls-11" points="360.75 85.89 363.68 86.62 359.47 91.04 356.04 90.86 360.75 85.89"/><polygon class="cls-14" points="332.08 95.8 333.51 94.98 334.2 95.28 332.74 95.99 332.08 95.8"/><polygon class="cls-6" points="322.76 96.51 337.21 102.94 341.5 111.25 340.11 123.79 326.74 110.63 322.76 96.51"/><polygon class="cls-7" points="357.91 109.33 365.84 112.67 356.46 120.2 350.36 122.35 357.91 109.33"/><polygon class="cls-15" points="356.04 90.86 359.47 91.04 363.31 93.65 370.16 95.44 371.69 101.88 369.51 104.9 366.73 104.9 362.17 102.94 359.47 100.59 355.12 95.11 356.04 90.86"/><polygon class="cls-11" points="355.12 95.11 355.11 102.94 359.47 100.59 355.12 95.11"/><polygon class="cls-11" points="356.04 90.86 359.47 91.04 363.31 93.65 359.47 100.59 355.12 95.11 356.04 90.86"/><polygon class="cls-4" points="320.08 78.77 329.13 77.1 327.76 71.86 322.56 72.49 320.08 78.77"/><polygon class="cls-4" points="329.13 77.1 327.76 71.86 338.94 72.49 344.25 71.12 352.18 72.49 358.87 78.84 360.75 84.65 355.11 88.15 348.92 89.86 342.13 86.44 335.22 82.95 329.13 77.1"/><polygon class="cls-16" points="342.97 73.6 347.07 73.6 353.25 74.41 357.77 79.41 359.21 82.83 355.12 86.62 347.38 82.59 341.87 75.31 342.97 73.6"/><polygon class="cls-17" points="360.75 84.65 360.75 85.89 363.68 86.62 370.71 88.78 360.75 84.65"/></svg>