<svg id="Ebene_1" data-name="Ebene 1" xmlns="http://www.w3.org/2000/svg" viewBox="0 0 486.26 595.28"><defs><style>.cls-1{fill:#a57679;}.cls-2{fill:#a97b7f;}.cls-3{fill:#9b666b;}.cls-4{fill:#85474f;}.cls-5{fill:#9f6c71;}.cls-6{fill:#925a60;}.cls-7{fill:#90575d;}.cls-8{fill:#692430;}.cls-9{fill:#976066;}.cls-10{fill:#9e6a6e;}.cls-11{fill:#a37175;}.cls-12{fill:#1e1e1c;}.cls-13{fill:#fff;}.cls-14{fill:#7d3c45;}.cls-15{fill:#af8386;}.cls-16{fill:#6f2c37;}.cls-17{fill:#73303a;}</style></defs><title>Insel_2</title><polygon class="cls-1" points="402.79 166.98 405.58 173.37 413.51 176.71 417.84 171.84 417.18 168.94 419.37 165.92 417.84 159.48 419.93 155.89 418.38 152.81 411.36 150.66 407.14 155.07 407.14 164.63 402.79 166.98"/><polygon class="cls-2" points="133.27 351.67 127.73 311.31 127.73 279.27 138.81 253.3 138.02 284.41 135.45 321.74 133.27 351.67"/><polygon class="cls-1" points="138.81 253.3 167.3 241.68 195.39 265.02 194.6 336.24 157.79 360.1 135.45 410.23 133.27 370.66 133.27 351.67 135.45 279.51 138.81 253.3"/><polygon class="cls-3" points="157.79 360.1 144.33 384.09 155.43 397.57 164.33 376.13 171.25 364.73 157.79 360.1"/><polygon class="cls-3" points="133.27 370.66 128.55 392.6 127.73 412.02 135.45 410.23 152.26 408.25 135.45 410.23 133.27 370.66"/><polygon class="cls-4" points="130.37 341.5 124.88 351.67 119.83 325.03 108.07 296.68 113.8 268.13 132.08 248.87 149.03 241.68 138.81 253.3 127.73 279.27 127.73 295.34 129.16 321.74 130.37 341.5"/><polygon class="cls-2" points="149.03 241.68 138.81 253.3 167.3 241.68 174.37 233.22 149.03 241.68"/><polygon class="cls-2" points="174.37 233.22 167.3 241.68 195.39 265.02 231.22 239.33 215.21 233.22 174.37 233.22"/><polygon class="cls-5" points="195.39 265.02 198.95 298.63 243.64 324.61 290.81 306.71 296.49 270.28 273.33 244.38 231.22 239.33 195.39 265.02"/><polygon class="cls-6" points="198.95 298.63 195.85 325.4 218.79 345.66 243.64 324.61 198.95 298.63"/><polygon class="cls-7" points="243.64 324.61 218.79 345.66 261.96 350.48 243.64 324.61"/><polygon class="cls-3" points="243.64 324.61 290.81 306.71 276.91 337.55 261.96 350.48 243.64 324.61"/><polygon class="cls-1" points="273.33 244.38 296.49 270.28 325.55 249.12 296.49 243.33 273.33 244.38"/><polygon class="cls-2" points="268.99 344.4 279.49 355.69 299.44 348.98 321.72 353.75 328.78 351.36 344.34 326.71 290.81 306.71 276.91 337.55 268.99 344.4"/><polygon class="cls-8" points="276.91 337.55 279.49 355.69 268.99 344.4 276.91 337.55"/><polygon class="cls-2" points="290.81 306.71 296.49 270.28 325.55 249.12 362.01 305.15 344.34 326.71 290.81 306.71"/><polygon class="cls-3" points="362.01 305.15 375.09 286.6 381.98 265.02 332.5 244.19 325.55 249.12 353.76 293.41 362.01 305.15"/><polygon class="cls-9" points="332.5 244.19 335.51 230.76 387.28 228.82 385.69 247.02 381.98 265.02 332.5 244.19"/><polygon class="cls-3" points="341.69 187.82 341.69 172.28 345.58 153.19 352.76 146.12 354.59 164.85 353.76 183.41 367.31 194.89 341.69 187.82"/><polygon class="cls-2" points="279.49 355.69 279.49 394.8 286.51 419.2 300.4 415.83 309.59 417.63 309.59 411.35 316.54 401.92 321.72 353.75 299.44 348.98 279.49 355.69"/><polygon class="cls-9" points="257.82 350.48 259.39 412.02 268.99 430.63 282.47 416.51 285.2 414.67 279.49 394.8 279.49 355.69 268.99 344.4 257.82 350.48"/><polygon class="cls-7" points="259.39 412.02 261.96 437.57 261.96 462.23 268.99 472.31 277.54 472.31 284.42 468.8 283.78 461.97 277.54 454.38 282.47 416.51 268.99 425.21 259.39 412.02"/><polygon class="cls-1" points="286.51 419.2 290.43 456.44 297.49 470.07 306.67 473.66 316.54 471.19 315.19 465.37 308.95 452.14 309.59 417.63 300.4 415.83 286.51 419.2"/><polygon class="cls-4" points="155.43 397.57 158.09 435.33 169.07 463.57 174 467.38 174 470.52 160.78 472.31 152.26 461.33 147.1 437.8 149.03 408.63 155.43 397.57"/><polygon class="cls-10" points="163.94 343.96 190.21 320.67 195.39 265.02 198.95 298.63 194.6 336.24 171.25 364.73 157.79 360.1 163.94 343.96"/><polyline class="cls-1" points="231.22 239.33 273.33 244.38 195.39 265.02"/><polygon class="cls-10" points="325.55 319.69 353.76 293.41 362.01 305.15 344.34 326.71 328.78 351.36 321.56 355.25 325.55 319.69"/><polygon class="cls-7" points="144.33 384.09 135.45 410.23 149.03 408.63 155.43 397.57 144.33 384.09"/><polygon class="cls-3" points="127.73 412.02 143.02 465.43 152.26 476.3 161.76 476.3 163.94 471.55 155.43 463.24 149.1 435.94 149.03 408.63 135.45 410.23 127.73 412.02"/><polygon class="cls-7" points="135.45 410.23 149.03 408.63 149.1 435.94 155.43 463.24 163.94 471.55 161.76 476.3 152.26 476.3 143.02 465.43 137.97 437.43 135.45 410.23"/><polygon class="cls-8" points="198.95 298.63 195.85 325.4 218.79 345.66 198.95 298.63"/><polygon class="cls-2" points="325.55 249.12 353.76 293.41 371.91 260.79 332.5 244.19 325.55 249.12"/><polygon class="cls-1" points="335.51 230.76 332.5 244.19 371.91 260.79 375.44 228.82 335.51 230.76"/><polygon class="cls-1" points="341.69 187.82 335.51 230.76 375.44 228.82 367.31 194.89 354.5 191.36 341.69 187.82"/><polygon class="cls-9" points="367.31 194.89 375.44 228.82 379.32 262.87 376.85 262.87 387.28 228.82 386.72 197.49 367.31 194.89"/><polygon class="cls-7" points="180.25 353.75 190.21 320.67 195.85 325.4 194.6 336.24 180.25 353.75"/><polygon class="cls-7" points="135.45 410.23 144.33 384.09 155.43 397.57 148.93 410.23 149.1 435.94 135.45 410.23"/><polygon class="cls-7" points="268.99 344.4 270.93 392.31 282.47 416.51 285.2 414.67 279.49 394.8 279.49 355.69 268.99 344.4"/><polygon class="cls-3" points="268.99 416.51 270.93 392.31 282.47 416.51 268.99 416.51"/><polygon class="cls-1" points="268.99 416.51 282.47 416.51 277.54 454.38 283.78 461.97 274.24 461.97 268.99 454.32 268.99 416.51"/><polygon class="cls-1" points="282.13 325.95 299.44 348.98 279.49 355.69 276.91 337.55 282.13 325.95"/><polygon class="cls-11" points="299.44 348.98 279.49 355.69 279.49 394.8 286.51 419.2 300.4 415.83 292.93 392.31 299.44 348.98"/><polygon class="cls-9" points="286.51 419.2 300.4 415.83 296.49 453.36 306.67 473.66 297.49 470.07 290.43 456.44 286.51 419.2"/><polygon class="cls-11" points="133.27 351.67 157.79 360.1 144.33 384.09 135.45 410.23 133.27 370.66 133.27 351.67"/><polygon class="cls-2" points="352.07 149.73 353.34 143.13 361.09 135.76 364.64 130.56 371.88 124.08 374.42 124.08 374.42 126.75 370.87 133.73 369.47 139.96 365.02 149.73 363.25 152.81 353.47 152.4 352.07 149.73"/><polygon class="cls-2" points="375.44 135.89 381.53 129.67 385.98 125.61 388.77 124.97 388.77 128.02 386.74 132.97 386.61 136.53 375.44 135.89"/><polygon class="cls-8" points="370.24 136.53 375.44 135.89 386.61 136.53 394.74 136.53 399.85 136.53 406.55 142.88 408.42 148.69 408.42 149.93 406.23 152.81 403.72 154.89 402.8 159.15 396.39 163.19 391.06 161.42 386.49 155.19 381.28 152.81 376.45 153.42 369.47 156.08 363.25 152.81 365.02 149.73 370.24 136.53"/><polygon class="cls-12" points="375.44 158.17 379.51 155.89 384.89 155.89 384.89 158.17 380.16 159.48 375.44 158.17"/><polygon class="cls-12" points="410.99 157.68 414.57 156.87 419.4 156.79 417.84 159.48 410.99 157.68"/><polygon class="cls-12" points="409.84 166.98 414.41 168.94 417.18 168.94 417.51 170.41 413.94 170.1 409.84 166.98"/><polygon class="cls-7" points="389.91 169.9 401.45 172.46 398.04 186.39 398.04 186.39 389.18 175.29 389.91 169.9"/><polygon class="cls-7" points="365.4 153.42 362.55 163.19 389.18 175.29 391.06 161.42 386.49 155.19 381.28 152.81 376.45 153.42 369.47 156.08 365.4 153.42"/><polygon class="cls-4" points="391.06 161.42 384.89 166.98 389.18 175.29 398.04 186.39 404.14 184.24 413.51 176.71 405.58 173.37 402.79 166.98 407.14 164.63 407.14 156.79 407.14 155.07 409.99 150.75 408.42 149.93 403.72 154.89 402.8 159.15 396.39 163.19 391.06 161.42"/><polygon class="cls-5" points="360.91 149.54 363.25 144.1 368.96 135.16 365.68 144.85 363.48 149.93 360.91 149.54"/><polygon class="cls-5" points="354.59 164.85 370.43 160.54 384.89 166.98 389.18 175.29 389.18 175.29 386.72 197.49 367.31 194.89 353.76 183.41 354.59 164.85"/><polygon class="cls-6" points="353.36 152.19 354.59 164.85 362.71 162.65 365.4 153.42 363.25 152.81 353.36 152.19"/><polygon class="cls-12" points="377.92 160.21 383.02 157.2 386.4 158.7 383.02 161.85 377.92 160.21"/><polygon class="cls-7" points="389.18 175.29 386.72 197.49 398.04 186.39 389.18 175.29"/><polygon class="cls-2" points="408.42 149.93 411.36 150.66 407.14 155.07 403.72 154.89 408.42 149.93"/><polygon class="cls-13" points="379.76 159.83 381.19 159.01 381.87 159.32 380.42 160.03 379.76 159.83"/><polygon class="cls-1" points="370.43 160.54 384.89 166.98 389.18 175.29 387.79 187.82 374.42 174.66 370.43 160.54"/><polygon class="cls-14" points="405.58 173.37 413.51 176.71 404.14 184.24 398.04 186.39 405.58 173.37"/><polygon class="cls-15" points="403.72 154.89 407.14 155.07 410.99 157.68 417.84 159.48 419.37 165.92 417.18 168.94 414.41 168.94 409.84 166.98 407.14 164.63 402.8 159.15 403.72 154.89"/><polygon class="cls-2" points="402.8 159.15 402.79 166.98 407.14 164.63 402.8 159.15"/><polygon class="cls-2" points="403.72 154.89 407.14 155.07 410.99 157.68 407.14 164.63 402.8 159.15 403.72 154.89"/><polygon class="cls-16" points="367.76 142.81 376.8 141.13 375.44 135.89 370.24 136.53 367.76 142.81"/><polygon class="cls-16" points="376.8 141.13 375.44 135.89 386.61 136.53 391.93 135.16 399.85 136.53 406.55 142.88 408.42 148.69 402.79 152.19 396.59 153.9 389.81 150.47 382.9 146.99 376.8 141.13"/><polygon class="cls-17" points="390.65 137.64 394.75 137.64 400.92 138.45 405.45 143.45 406.89 146.87 402.8 150.66 395.05 146.63 389.55 139.35 390.65 137.64"/><polygon class="cls-3" points="408.42 148.69 408.42 149.93 411.36 150.66 418.38 152.81 408.42 148.69"/></svg>