<svg id="Ebene_1" data-name="Ebene 1" xmlns="http://www.w3.org/2000/svg" viewBox="0 0 106.14 101.9"><defs><style>.cls-1{fill:#e2b06a;}.cls-2{fill:#d1905b;}.cls-3{fill:#d4985c;}.cls-4{fill:#f5dfb6;}.cls-5{fill:#edc77b;}.cls-6{fill:#dc9e63;}.cls-7{fill:#e4ae9b;}.cls-8{fill:#e8be79;}.cls-9{fill:#efce8e;}.cls-10{fill:#e7b966;}.cls-11{fill:none;stroke:#364596;stroke-miterlimit:10;stroke-width:0.2px;}.cls-12{fill:#d19256;}.cls-13{fill:#f6e1ba;}.cls-14{fill:#479489;}.cls-15{fill:#1f897d;}.cls-16{fill:#569a8f;}.cls-17{fill:#6ca399;}.cls-18{fill:#76a89f;}.cls-19{fill:#328e82;}</style></defs><title>Sterne_überall</title><polygon class="cls-1" points="64.29 74.2 62.03 86.8 57.92 78.86 60.38 71.82 64.29 74.2"/><polygon class="cls-2" points="69.22 85.65 66.44 90.69 67.02 86.8 70.25 79.68 69.22 85.65"/><polygon class="cls-3" points="70.25 73.7 70.25 79.68 64.29 74.2 70.25 73.7"/><polygon class="cls-1" points="62.71 67.59 60.38 71.82 56.08 72.5 55.27 68.27 62.71 67.59"/><polygon class="cls-4" points="40.54 65.84 43.51 69.92 38.37 69.92 38.68 65.25 40.54 65.84"/><polygon class="cls-3" points="57.46 92.8 62.49 89.71 62.32 94.4 56.66 95.73 57.46 92.8"/><polygon class="cls-5" points="45.35 85 47.19 81.44 48.84 91.18 45.35 85"/><polygon class="cls-6" points="70.25 79.68 62.03 86.8 64.29 74.2 70.25 79.68"/><polygon class="cls-5" points="52.54 52.09 48.81 55.87 47.19 50.54 49.35 50.54 52.54 52.09"/><polygon class="cls-7" points="55.91 64.09 55.27 68.27 56.08 72.5 47.19 69.52 46.89 66.54 49.88 62.77 55.52 62.16 55.91 64.09"/><polygon class="cls-2" points="66.07 63.79 66.07 68.61 62.71 67.59 60.77 63.6 66.07 63.79"/><polygon class="cls-2" points="62.03 59.32 66.54 55.38 68.84 62.16 62.03 59.32"/><polygon class="cls-8" points="45.35 85 44.72 93.37 40.6 88.43 45.35 85"/><polygon class="cls-3" points="70.25 79.68 67.02 86.8 62.03 86.8 70.25 79.68"/><polygon class="cls-9" points="46.91 56.84 46.93 56.83 46.96 56.84 46.94 56.89 46.91 56.84"/><polygon class="cls-10" points="57.17 58.7 55.52 62.16 49.88 62.77 51.82 57.86 57.17 58.7"/><polygon class="cls-2" points="63.66 51.98 62.71 54.65 60.77 54.22 59.34 50.54 60.88 50.54 63.66 51.98"/><polygon class="cls-4" points="41.69 55.11 44.26 62.28 39.34 60.12 41.69 55.11"/><polygon class="cls-2" points="70.25 66.7 70.25 73.7 66.07 68.61 70.25 66.7"/><polygon class="cls-8" points="52.54 52.09 51.82 57.86 48.81 55.87 52.54 52.09"/><polygon class="cls-8" points="46.94 56.89 49.88 62.77 46.89 66.54 44.26 62.28 46.94 56.89"/><polygon class="cls-9" points="41.71 55.08 41.69 55.11 41.68 55.07 41.71 55.08"/><polygon class="cls-2" points="62.49 89.71 62.03 86.8 67.02 86.8 66.44 90.69 62.32 94.4 62.49 89.71"/><polygon class="cls-1" points="62.03 59.32 60.77 63.6 55.91 64.09 55.52 62.16 57.17 58.7 62.03 59.32"/><polygon class="cls-5" points="48.81 55.87 51.82 57.86 49.88 62.77 46.94 56.89 46.96 56.84 46.93 56.83 48.81 55.87"/><polygon class="cls-9" points="46.93 56.83 46.91 56.84 44.26 62.28 41.71 55.08 46.93 56.83"/><polygon class="cls-1" points="60.77 54.22 51.82 57.86 52.54 52.09 56.66 51.88 60.77 54.22"/><polygon class="cls-1" points="62.03 86.8 62.49 89.71 57.46 92.8 62.03 86.8"/><polygon class="cls-6" points="62.03 86.8 57.46 92.8 48.84 91.18 62.03 86.8"/><polygon class="cls-8" points="56.08 72.5 47.19 81.44 45.89 75.32 56.08 72.5"/><polygon class="cls-6" points="62.71 54.65 62.03 59.32 57.17 58.7 60.77 54.22 62.71 54.65"/><polygon class="cls-6" points="59.34 50.54 60.77 54.22 56.66 51.88 59.34 50.54"/><polygon class="cls-1" points="56.08 72.5 45.89 75.32 47.19 69.52 56.08 72.5"/><polygon class="cls-9" points="46.94 56.89 44.26 62.28 46.91 56.84 46.94 56.89"/><polygon class="cls-6" points="66.07 63.79 60.77 63.6 62.03 59.32 68.84 62.16 66.07 63.79"/><polygon class="cls-5" points="43.51 69.92 45.89 75.32 39.72 80.06 39.52 78.09 43.51 69.92"/><polygon class="cls-6" points="66.07 68.61 64.29 74.2 60.38 71.82 62.71 67.59 66.07 68.61"/><polygon class="cls-4" points="41.71 55.08 44.26 62.28 41.69 55.11 41.71 55.08"/><line class="cls-11" x1="55.91" y1="64.09" x2="55.27" y2="68.27"/><line class="cls-11" x1="62.03" y1="86.8" x2="47.19" y2="81.44"/><polygon class="cls-12" points="66.07 63.8 68.84 62.16 70.25 66.71 66.07 68.61 66.07 63.8"/><polygon class="cls-12" points="66.07 68.61 64.28 74.2 70.25 73.71 66.07 68.61"/><polygon class="cls-12" points="63.66 51.99 62.71 54.66 62.03 59.33 66.54 55.38 63.66 51.99"/><polygon class="cls-8" points="51.82 57.87 60.77 54.22 57.17 58.71 51.82 57.87"/><polygon class="cls-10" points="55.9 64.09 55.27 68.27 62.71 67.59 60.77 63.6 55.9 64.09"/><polygon class="cls-1" points="55.54 62.16 55.93 64.09 55.3 68.27 46.91 66.55 49.9 62.78 55.54 62.16"/><polygon class="cls-10" points="57.92 78.87 62.03 86.8 47.19 81.44 51.82 76.69 57.92 78.87"/><polygon class="cls-10" points="46.91 66.55 47.21 69.53 56.1 72.51 55.3 68.27 46.91 66.55"/><polygon class="cls-8" points="47.19 69.53 45.89 75.32 43.5 69.92 46.88 66.55 47.19 69.53"/><polygon class="cls-1" points="56.07 72.51 60.38 71.82 57.92 78.87 51.82 76.69 56.07 72.51"/><polygon class="cls-1" points="47.19 81.44 48.84 91.18 62.03 86.8 47.19 81.44"/><polygon class="cls-5" points="44.26 62.28 46.91 66.55 43.5 69.92 40.54 65.84 44.26 62.28"/><polygon class="cls-4" points="47.23 50.55 48.85 55.87 46.96 56.84 41.68 55.08 47.23 50.55"/><polygon class="cls-4" points="38.37 69.94 38.13 74.65 38.13 82.16 40.6 88.44 39.52 78.11 38.37 69.94"/><polygon class="cls-9" points="38.37 69.92 39.52 78.09 43.5 69.92 38.37 69.92"/><polygon class="cls-3" points="48.84 91.18 57.46 92.81 56.66 95.74 51.41 95.74 48.84 91.18"/><polygon class="cls-5" points="45.35 85 44.72 93.37 51.41 95.74 48.84 91.18 45.35 85"/><polygon class="cls-9" points="41.28 78.87 45.88 75.32 47.18 81.44 45.34 85 41.28 78.87"/><polygon class="cls-13" points="39.72 80.07 41.28 78.87 45.35 85 40.61 88.44 39.72 80.07"/><polygon class="cls-13" points="39.34 60.12 38.68 65.26 40.54 65.84 44.26 62.28 39.34 60.12"/><polygon class="cls-14" points="51.33 52.58 44.4 48.22 50.76 49.22 51.33 52.58"/><polygon class="cls-15" points="50.76 49.22 51.33 52.58 56.54 52.94 58.69 49.22 50.76 49.22"/><polygon class="cls-16" points="58.69 49.22 56.54 52.94 64.19 48.22 58.69 49.22"/><polygon class="cls-15" points="58.69 49.22 67.19 43.15 56.54 45.72 55.76 49.22 58.69 49.22"/><polygon class="cls-17" points="56.54 45.72 55.76 49.22 53.04 49.22 49.47 45.72 56.54 45.72"/><polygon class="cls-18" points="49.47 45.72 53.04 49.22 50.76 49.22 44.4 48.22 38.11 43.15 49.47 45.72"/><polygon class="cls-16" points="49.47 45.72 37.54 38.15 46.83 40.65 49.47 45.72"/><polygon class="cls-14" points="49.47 45.72 46.83 40.65 56.54 45.72 49.47 45.72"/><polygon class="cls-14" points="56.54 45.72 67.97 38.15 51.07 42.87 56.54 45.72"/><polygon class="cls-18" points="51.07 42.87 46.83 40.65 35.9 28.29 46.54 35.58 51.07 42.87"/><polygon class="cls-19" points="51.07 42.87 46.54 35.58 61.47 39.97 51.07 42.87"/><polygon class="cls-16" points="61.47 39.97 69.83 30.51 56.06 38.38 61.47 39.97"/><polygon class="cls-17" points="56.06 38.38 46.54 35.58 56.54 33.79 56.06 38.38"/><polygon class="cls-15" points="56.06 38.38 56.54 33.79 69.19 21.65 59.77 36.26 56.06 38.38"/><polygon class="cls-19" points="46.54 35.58 36.97 20.72 45.58 28.15 46.54 35.58"/><polygon class="cls-16" points="46.54 35.58 45.58 28.15 56.54 33.79 46.54 35.58"/><polygon class="cls-16" points="56.54 33.79 68.54 14.29 54.01 27.72 56.54 33.79"/><polygon class="cls-17" points="56.54 33.79 54.01 27.72 45.58 28.15 56.54 33.79"/><polygon class="cls-18" points="45.58 28.15 39.11 8.07 46.83 22.86 45.58 28.15"/><polygon class="cls-14" points="47.86 28.03 42.33 2.86 51.33 27.86 47.86 28.03"/><polygon class="cls-14" points="51.33 27.86 49.47 22.7 57.99 24.04 54.01 27.72 51.33 27.86"/><polygon class="cls-19" points="49.47 22.7 49.83 3.86 55.04 20.39 49.47 22.7"/><polygon class="cls-15" points="52.88 23.22 66.61 5.22 57.99 24.04 52.88 23.22"/><polygon class="cls-18" points="46.83 22.86 45.58 28.15 47.86 28.03 46.83 22.86"/><polygon class="cls-16" points="49.47 22.7 55.04 20.39 52.88 23.22 49.47 22.7"/></svg>