<svg id="Ebene_1" data-name="Ebene 1" xmlns="http://www.w3.org/2000/svg" viewBox="0 0 386.51 464.37"><defs><style>.cls-1{fill:#715a5e;}.cls-2{fill:#836e71;}.cls-3{fill:#566583;}.cls-4{fill:#7590b0;}.cls-5{fill:#8299b7;}.cls-6{fill:#495b7b;}.cls-7{fill:#7792b1;}.cls-8{fill:#5c6a87;}</style></defs><title>Insel_2</title><polygon class="cls-1" points="265.11 186.46 247.18 209.24 220.41 227.25 213.19 248.9 209.49 258.88 214.6 286.98 215.52 292.03 219.68 284.22 220.09 295.59 216.9 308.35 216.9 354.66 209.41 361.56 200.43 354.44 200.54 300.36 196.2 273.44 168.92 236.9 168.03 222.99 170.92 217.39 176.13 232 194.65 251.87 203.09 232.98 203.66 222.4 205.37 215.89 207.39 223.37 212.86 211.13 204.7 187.55 212.13 159.66 218 160.7 216.9 186.08 224.48 204.75 224.48 204.75 224.29 212.18 240.81 201.77 260.4 183.7 265.11 186.46"/><polygon class="cls-2" points="215.37 211.16 206.21 187.58 213.87 160.83 215.31 160.83 210.36 187.58 218.43 210.08 199.88 257.65 207.41 299.24 208.92 358.12 202.46 354.08 202.76 299.94 195.06 257.63 215.37 211.16"/><polygon class="cls-2" points="260.67 188.35 244.18 205.49 221.78 220.33 223.27 214.63 242.88 202.77 259.4 187.09 260.67 188.35"/><polygon class="cls-2" points="218.72 289.13 218.72 295.66 215.32 309.35 215.2 299.49 218.72 289.13"/><polygon class="cls-3" points="192.72 235.54 163.86 211.77 129.91 248.28 167.61 254.67 192.72 235.54"/><polygon class="cls-4" points="163.86 211.77 155.37 171.88 116.33 203.28 129.91 248.28 163.86 211.77"/><polygon class="cls-3" points="155.37 171.88 187.26 192.11 192.72 235.54 163.86 211.77 155.37 171.88"/><polygon class="cls-5" points="163.86 211.77 116.33 203.28 129.91 248.28 161.31 214.51 163.86 211.77"/><polygon class="cls-6" points="187.26 192.11 163.86 211.77 192.72 235.54 187.26 192.11"/><polygon class="cls-7" points="155.37 171.88 116.33 203.28 129.12 187.58 155.37 171.88"/><polygon class="cls-8" points="163.86 211.77 146.88 251.15 129.91 248.28 163.86 211.77"/><polygon class="cls-3" points="258.55 122.83 227.82 122.83 193.34 100.35 242.44 106.57 258.55 122.83"/><polygon class="cls-6" points="258.55 122.83 253.31 152.81 220.33 164.06 227.82 122.83 258.55 122.83"/><polygon class="cls-5" points="224.41 141.57 220.33 164.06 204.45 156.5 179.85 131.83 193.34 100.35 234.25 122.83 224.41 141.57"/><polygon class="cls-7" points="220.33 164.06 204.45 156.5 179.85 131.83 202.36 159.98 220.33 164.06"/><polygon class="cls-4" points="234.25 122.83 224.41 141.57 224.41 117.43 234.25 122.83"/><polygon class="cls-3" points="316.03 146.19 280.98 169.55 244.18 143.85 280.11 129.25 316.03 146.19"/><polygon class="cls-6" points="316.03 146.19 316.03 185.91 301.02 203.92 280.11 209.27 280.98 169.55 316.03 146.19"/><polygon class="cls-4" points="280.98 169.55 244.18 143.85 234.25 181.23 262.29 209.27 280.11 209.27 280.98 169.55"/><polyline class="cls-3" points="301.02 203.92 280.98 169.55 262.29 209.27 280.11 209.27"/></svg>