<svg id="Ebene_1" data-name="Ebene 1" xmlns="http://www.w3.org/2000/svg" viewBox="0 0 434.08 464.37"><defs><style>.cls-1{fill:#715a5e;}.cls-2{fill:#409286;}.cls-3{fill:#328e82;}.cls-4{fill:#569a8f;}.cls-5{fill:#1f897d;}.cls-6{fill:#836e71;}</style></defs><title>Insel_2</title><polygon class="cls-1" points="170.48 213.97 188.41 236.75 215.19 254.76 222.4 276.41 226.1 286.38 220.99 314.49 220.07 319.54 215.91 311.73 215.51 323.1 218.7 335.86 218.7 382.17 226.19 389.06 235.17 381.95 235.05 327.87 239.4 300.95 266.68 264.41 267.56 250.5 264.68 244.9 259.46 259.51 240.95 279.38 232.5 260.49 231.94 249.91 230.23 243.4 228.2 250.87 222.73 238.64 230.9 215.06 223.47 187.17 217.59 188.21 218.7 213.59 211.12 232.26 211.12 232.26 211.3 239.69 194.78 229.28 175.19 211.21 170.48 213.97"/><polygon class="cls-2" points="245.74 240.19 278.09 213.55 316.15 254.46 273.89 261.63 245.74 240.19"/><polygon class="cls-3" points="278.09 213.55 287.61 168.83 331.37 204.03 316.15 254.46 278.09 213.55"/><polygon class="cls-2" points="287.61 168.83 251.87 191.51 245.74 240.19 278.09 213.55 287.61 168.83"/><polygon class="cls-3" points="162.59 138.42 201.6 138.42 245.37 109.88 183.05 117.78 162.59 138.42"/><polygon class="cls-4" points="162.59 138.42 169.25 176.48 211.12 190.75 201.6 138.42 162.59 138.42"/><polygon class="cls-5" points="205.93 162.21 211.12 190.75 231.26 181.16 262.49 149.84 245.37 109.88 193.44 138.42 205.93 162.21"/><polygon class="cls-2" points="211.12 190.75 231.26 181.16 262.49 149.84 233.92 185.57 211.12 190.75"/><polygon class="cls-5" points="278.09 213.55 331.37 204.03 316.15 254.46 280.94 216.62 278.09 213.55"/><polygon class="cls-4" points="251.87 191.51 278.09 213.55 245.74 240.19 251.87 191.51"/><polygon class="cls-2" points="287.61 168.83 331.37 204.03 317.03 186.43 287.61 168.83"/><polygon class="cls-5" points="278.09 213.55 297.12 257.67 316.15 254.46 278.09 213.55"/><polygon class="cls-3" points="124.54 176 153.08 195.03 183.05 174.1 153.79 162.21 124.54 176"/><polygon class="cls-4" points="124.54 176 124.54 208.35 136.76 223.02 153.79 227.38 153.08 195.03 124.54 176"/><polygon class="cls-5" points="153.08 195.03 183.05 174.1 191.13 204.54 168.3 227.38 153.79 227.38 153.08 195.03"/><polyline class="cls-2" points="136.76 223.02 153.08 195.03 168.3 227.38 153.79 227.38"/><polygon class="cls-2" points="193.44 138.42 205.93 162.21 205.93 131.56 193.44 138.42"/><polygon class="cls-6" points="214.83 232.81 223.34 213.71 221.72 188.34 218.39 189.1 219.46 213.76 211.88 232.43 212.32 240.19 216.03 254.35 228.41 286.58 220.4 327 219.72 383.11 225.69 388.61 226.69 330.14 233.72 288.12 215.56 240.19 214.83 232.81"/><polygon class="cls-6" points="176.34 219.34 189.7 235.61 215.23 251.32 213.74 245.61 191.13 233.26 177.61 218.07 176.34 219.34"/><polygon class="cls-6" points="216.88 316.64 216.88 323.17 220.28 336.86 220.4 327 216.88 316.64"/><polygon class="cls-6" points="241.99 281 260.35 260.89 263.16 253.45 264.12 254.18 262.25 261.63 242.94 284.03 241.99 281"/></svg>