<svg id="Ebene_1" data-name="Ebene 1" xmlns="http://www.w3.org/2000/svg" viewBox="0 0 191.55 179.37"><defs><style>.cls-1{fill:#e09f89;}.cls-2{fill:#ebc1b1;}.cls-3{fill:#db8d76;}.cls-4{fill:#f5efef;}.cls-5{fill:#dbc9ca;}.cls-6{fill:#dccbcc;}.cls-7{fill:#f2eaea;}.cls-8{fill:#e5d8d8;}.cls-9{fill:#e9dddd;}.cls-10{fill:#d9c6c7;}.cls-11{fill:#d5c1c2;}.cls-12{fill:#8299b7;}.cls-13{fill:#fed386;}.cls-14{fill:#1e1e1c;}.cls-15{fill:#f5f5f5;}.cls-16{fill:#fcc864;}.cls-17{fill:#e4ae9b;}</style></defs><title>Insel_2</title><polygon class="cls-1" points="95.5 137.64 86.52 140.44 89.3 140.19 87.04 142.81 91.06 140.84 90.06 143.62 96.88 138.73 98.15 137.45 97.89 137.22 96.95 138 95.5 137.64"/><polygon class="cls-2" points="96.72 124.47 95.5 137.64 95.61 137.87 96.29 138.1 96.95 138 98.27 123.62 96.72 124.47"/><polygon class="cls-3" points="98.27 123.62 99.13 125.73 97.89 137.22 96.95 138 96.95 138 98.27 123.62"/><polygon class="cls-4" points="142.08 41.73 148.07 51.38 140.61 53.37 132.32 58.52 137.57 46.09 142.08 41.73"/><polygon class="cls-5" points="148.07 51.38 146.07 72.88 123.92 71.95 132.32 58.52 140.61 53.37 148.07 51.38"/><polygon class="cls-6" points="146.07 72.88 142.82 81.08 140.82 89.48 132.32 91.79 135.54 83.53 123.92 71.95 146.07 72.88"/><polygon class="cls-7" points="132.32 40.11 137.57 46.09 121.84 53.37 132.32 40.11"/><polygon class="cls-8" points="137.57 46.09 132.32 58.52 123.92 71.95 121.84 53.37 137.57 46.09"/><polygon class="cls-9" points="135.54 83.53 132.32 91.79 123.92 71.95 135.54 83.53"/><polygon class="cls-9" points="133.35 101.33 133.57 103.86 125.92 114.99 120.78 116.35 118.46 101.33 121.84 98.57 132.32 91.79 133.35 101.33"/><polygon class="cls-9" points="123.92 71.95 132.32 91.79 118.97 93.64 112.1 88.93 103.69 73.72 123.92 71.95"/><polygon class="cls-8" points="132.32 91.79 121.84 98.57 118.97 93.64 132.32 91.79"/><polygon class="cls-8" points="121.84 53.37 123.92 71.95 108.18 62.5 121.84 53.37"/><polygon class="cls-10" points="123.92 71.95 103.69 73.72 92.44 63.69 108.18 62.5 123.92 71.95"/><polygon class="cls-4" points="118.97 93.64 121.84 98.57 118.46 101.33 94.47 96.21 81.68 92.46 73.62 82.51 75.97 67.08 92.44 63.69 103.69 73.72 112.1 88.93 118.97 93.64"/><polygon class="cls-8" points="118.46 101.33 120.78 116.35 111.54 118.35 104.67 125.15 97.54 126.22 96.28 112.32 118.46 101.33"/><polygon class="cls-7" points="96.28 112.32 97.54 126.22 95.14 125.15 85.51 113.52 75.53 106.91 65.86 99.39 76.63 94.53 96.28 112.32"/><polygon class="cls-8" points="92.44 63.69 75.97 67.08 65.4 55.17 72.19 49.97 81.68 56.2 92.44 63.69"/><polygon class="cls-10" points="78.33 47.27 81.68 56.2 72.19 49.97 65.86 43.66 78.33 47.27"/><polygon class="cls-11" points="73.22 37.92 78.33 47.27 65.86 43.66 65.59 37.03 65.4 32.94 73.22 37.92"/><polygon class="cls-4" points="72.96 86.86 76.63 94.53 65.86 99.39 61.72 94.18 66.27 72.88 72.96 86.86"/><polygon class="cls-7" points="65.4 55.17 75.97 67.08 66.27 72.88 55.4 73.72 55.4 67.8 57.07 61.55 65.4 55.17"/><polygon class="cls-10" points="75.97 67.08 73.62 82.51 72.96 86.86 66.27 72.88 75.97 67.08"/><polygon class="cls-11" points="72.19 49.97 65.4 55.17 57.07 61.55 60.23 49.09 65.86 43.66 72.19 49.97"/><polygon class="cls-8" points="66.27 72.88 61.72 94.18 56.5 81.37 55.4 73.72 66.27 72.88"/><polygon class="cls-11" points="65.59 37.03 65.86 43.66 65.58 37.04 65.59 37.03"/><polygon class="cls-8" points="65.58 37.04 65.86 43.66 60.23 49.09 58.69 43.66 65.58 37.04"/><polygon class="cls-10" points="65.4 32.94 65.59 37.03 65.58 37.02 65.4 32.94"/><polygon class="cls-11" points="65.59 37.03 65.58 37.04 65.58 37.02 65.59 37.03"/><polygon class="cls-7" points="65.58 37.02 65.58 37.04 58.69 43.66 56.51 42.47 52.56 40.69 51.16 39.23 57.07 32.94 65.58 37.02"/><polygon class="cls-10" points="65.58 37.02 57.07 32.94 60.23 31.73 65.4 32.94 65.58 37.02"/><polygon class="cls-7" points="58.69 43.66 60.23 49.09 57.54 45.46 57.51 45.45 53.42 43.8 51.64 43.09 56.29 42.5 58.69 43.66"/><polygon class="cls-7" points="58.69 43.66 56.29 42.5 56.51 42.47 58.69 43.66"/><polygon class="cls-12" points="57.54 45.46 57.47 46.47 56.78 47.27 55.4 46.72 53.42 43.81 57.51 45.45 57.54 45.46"/><polygon class="cls-12" points="57.51 45.45 53.42 43.81 53.42 43.8 57.51 45.45"/><polygon class="cls-12" points="56.74 31.45 57.07 32.94 51.16 39.23 49.9 39.23 52.49 33.87 53.42 30.8 56.74 31.45"/><polygon class="cls-13" points="56.51 42.47 56.29 42.5 52.56 40.69 56.51 42.47"/><polygon class="cls-13" points="52.56 40.69 56.29 42.5 51.64 43.09 48.16 44.23 48.16 42.03 49.9 39.23 51.16 39.23 52.56 40.69"/><polygon class="cls-4" points="55.15 36.74 57.54 35.02 59.79 37.04 57.76 39.12 56.52 39.12 55.15 36.74"/><polygon class="cls-14" points="55.94 37.04 57.54 35.89 58.69 37.04 57.31 38.3 55.94 37.04"/><polygon class="cls-15" points="57.14 37.18 57.69 36.74 58.38 36.97 57.41 37.69 57.14 37.18"/><polygon class="cls-16" points="48.16 44.23 50.75 42.48 55.94 42.48 51.64 43.09 48.16 44.23"/><polygon class="cls-10" points="97.89 94.18 81.69 92.47 66.27 72.88 76.63 94.54 96.28 112.32 118.46 101.34 97.89 94.18"/><polygon class="cls-7" points="81.69 56.21 75.97 67.08 92.45 63.7 81.69 56.21"/><polygon class="cls-7" points="132.32 91.79 133.35 101.34 136.21 96.21 140.83 89.48 132.32 91.79"/><polygon class="cls-8" points="148.07 51.38 142.91 72.88 143.47 79.44 146.08 72.88 148.07 51.38"/><polygon class="cls-3" points="86.64 140.43 89.05 140.57 89.3 140.19 86.64 140.43"/><polygon class="cls-3" points="87.04 142.81 90.89 141.31 91.06 140.84 87.04 142.81"/><polygon class="cls-3" points="90.06 143.62 97.4 139.11 98.15 138.35 98.15 137.45 97.17 138.44 90.06 143.62"/><polygon class="cls-17" points="100.2 138.38 92.91 144.76 97.07 142.29 95.38 146.52 98.96 143.29 98.94 146.87 102.12 140.71 102.97 138.45 102.96 137.18 101.65 138.73 101.3 138.65 100.87 138.54 100.2 138.38"/><polygon class="cls-2" points="101.55 123.61 100.2 138.38 100.57 138.57 101.14 138.75 101.65 138.73 103.1 122.76 101.55 123.61"/><polygon class="cls-1" points="103.1 122.76 103.96 124.87 102.94 137.88 101.65 138.73 101.71 137.6 103.1 122.76"/><polygon class="cls-1" points="92.91 144.76 96.95 142.61 97.07 142.29 92.91 144.76"/><polygon class="cls-1" points="95.38 146.52 98.96 143.79 98.96 143.29 95.38 146.52"/><polygon class="cls-1" points="98.94 146.87 102.39 140.01 102.97 138.45 103.1 139.31 102.75 140.22 98.94 146.87"/></svg>