<svg id="Ebene_1" data-name="Ebene 1" xmlns="http://www.w3.org/2000/svg" viewBox="0 0 159.78 185.18"><defs><style>.cls-1{fill:#d6afc5;}.cls-2{fill:#be799e;}.cls-3{fill:#8ea2bd;}.cls-4{fill:#8299b7;}.cls-5{fill:#5885ac;}.cls-6{fill:#7591b0;}.cls-7{fill:#407ba2;}.cls-8{fill:#32769e;}.cls-9{fill:#1e1e1c;}.cls-10{fill:#f5f5f5;}.cls-11{fill:#ca94b1;}.cls-12{fill:#7590b0;}</style></defs><title>Insel_2</title><polygon class="cls-1" points="60.65 151.12 51.67 153.91 54.45 153.66 52.19 156.29 56.22 154.32 55.21 157.09 62.03 152.21 63.3 150.93 63.04 150.69 62.1 151.47 60.65 151.12"/><polygon class="cls-1" points="61.87 137.95 60.65 151.12 60.76 151.35 61.44 151.57 62.1 151.47 63.42 137.09 61.87 137.95"/><polygon class="cls-2" points="63.42 137.09 64.28 139.21 63.04 150.69 62.1 151.47 62.1 151.47 63.42 137.09"/><polygon class="cls-3" points="107.23 55.21 113.22 64.86 105.76 66.85 97.47 72 102.72 59.57 107.23 55.21"/><polygon class="cls-4" points="113.22 64.86 111.22 86.36 89.07 85.43 97.47 72 105.76 66.85 113.22 64.86"/><polygon class="cls-5" points="111.22 86.36 107.97 94.56 105.97 102.96 97.47 105.27 100.69 97.01 89.07 85.43 111.22 86.36"/><polygon class="cls-4" points="97.47 53.59 102.72 59.57 86.99 66.85 97.47 53.59"/><polygon class="cls-6" points="102.72 59.57 97.47 72 89.07 85.43 86.99 66.85 102.72 59.57"/><polygon class="cls-5" points="100.69 97.01 97.47 105.27 89.07 85.43 100.69 97.01"/><polygon class="cls-6" points="98.5 114.81 98.72 117.34 91.07 128.47 85.93 129.83 83.61 114.81 86.99 112.05 97.47 105.27 98.5 114.81"/><polygon class="cls-6" points="89.07 85.43 97.47 105.27 84.12 107.12 77.25 102.41 68.84 87.2 89.07 85.43"/><polygon class="cls-6" points="97.47 105.27 86.99 112.05 84.12 107.12 97.47 105.27"/><polygon class="cls-5" points="86.99 66.85 89.07 85.43 73.33 75.98 86.99 66.85"/><polygon class="cls-7" points="89.07 85.43 68.84 87.2 57.59 77.17 73.33 75.98 89.07 85.43"/><polygon class="cls-3" points="84.12 107.12 86.99 112.05 83.61 114.81 59.62 109.69 46.83 105.94 38.77 95.99 41.12 80.56 57.59 77.17 68.84 87.2 77.25 102.41 84.12 107.12"/><polygon class="cls-7" points="83.61 114.81 85.93 129.83 76.69 131.83 69.82 138.63 62.69 139.7 61.43 125.8 83.61 114.81"/><polygon class="cls-4" points="61.43 125.8 62.69 139.7 60.29 138.63 50.66 127 40.68 120.39 31.01 112.87 41.78 108.01 61.43 125.8"/><polygon class="cls-5" points="57.59 77.17 41.12 80.56 30.55 68.65 37.34 63.45 46.83 69.68 57.59 77.17"/><polygon class="cls-8" points="43.48 60.75 46.83 69.68 37.34 63.45 31.01 57.14 43.48 60.75"/><polygon class="cls-5" points="38.37 51.4 43.48 60.75 31.01 57.14 30.74 50.51 30.55 46.42 38.37 51.4"/><polygon class="cls-6" points="38.11 100.34 41.78 108.01 31.01 112.87 26.87 107.66 31.42 86.36 38.11 100.34"/><polygon class="cls-6" points="30.55 68.65 41.12 80.56 31.42 86.36 20.55 87.2 20.55 81.28 22.22 75.03 30.55 68.65"/><polygon class="cls-5" points="41.12 80.56 38.77 95.99 38.11 100.34 31.42 86.36 41.12 80.56"/><polygon class="cls-5" points="37.34 63.45 30.55 68.65 22.22 75.03 25.38 62.57 31.01 57.14 37.34 63.45"/><polygon class="cls-4" points="31.42 86.36 26.87 107.66 21.65 94.85 20.55 87.2 31.42 86.36"/><polygon class="cls-6" points="30.74 50.51 31.01 57.14 30.73 50.52 30.74 50.51"/><polygon class="cls-6" points="30.73 50.52 31.01 57.14 25.38 62.57 23.84 57.14 30.73 50.52"/><polygon class="cls-8" points="30.55 46.42 30.74 50.51 30.73 50.5 30.55 46.42"/><polygon class="cls-4" points="30.74 50.51 30.73 50.52 30.73 50.5 30.74 50.51"/><polygon class="cls-4" points="30.73 50.5 30.73 50.52 23.84 57.14 21.66 55.95 17.71 54.17 16.31 52.71 22.22 46.42 30.73 50.5"/><polygon class="cls-8" points="30.73 50.5 22.22 46.42 25.38 45.21 30.55 46.42 30.73 50.5"/><polygon class="cls-6" points="23.84 57.14 25.38 62.57 22.69 58.94 22.66 58.93 18.57 57.28 16.79 56.57 21.44 55.98 23.84 57.14"/><polygon class="cls-6" points="23.84 57.14 21.44 55.98 21.66 55.95 23.84 57.14"/><polygon class="cls-2" points="22.69 58.94 22.62 59.95 21.93 60.75 20.55 60.2 18.57 57.29 22.66 58.93 22.69 58.94"/><polygon class="cls-2" points="22.66 58.93 18.57 57.29 18.57 57.28 22.66 58.93"/><polygon class="cls-2" points="21.89 44.93 22.22 46.42 16.31 52.71 15.05 52.71 17.64 47.35 18.57 44.28 21.89 44.93"/><polygon class="cls-1" points="21.66 55.95 21.44 55.98 17.71 54.17 21.66 55.95"/><polygon class="cls-1" points="17.71 54.17 21.44 55.98 16.79 56.57 13.31 57.71 13.31 55.51 15.05 52.71 16.31 52.71 17.71 54.17"/><polygon class="cls-3" points="20.3 50.22 22.69 48.49 24.94 50.51 22.91 52.59 21.67 52.59 20.3 50.22"/><polygon class="cls-9" points="21.09 50.51 22.69 49.37 23.84 50.51 22.46 51.78 21.09 50.51"/><polygon class="cls-10" points="22.29 50.65 22.84 50.22 23.53 50.45 22.56 51.16 22.29 50.65"/><polygon class="cls-11" points="13.31 57.7 15.9 55.95 21.09 55.95 16.79 56.57 13.31 57.7"/><polygon class="cls-8" points="63.05 107.65 46.84 105.94 31.42 86.35 41.78 108.01 61.43 125.79 83.61 114.81 63.05 107.65"/><polygon class="cls-6" points="46.84 69.68 41.12 80.56 57.6 77.17 46.84 69.68"/><polygon class="cls-12" points="97.48 105.27 98.5 114.81 101.36 109.69 105.98 102.96 97.48 105.27"/><polygon class="cls-12" points="113.22 64.85 108.07 86.35 108.63 92.91 111.23 86.35 113.22 64.85"/><polygon class="cls-2" points="51.79 153.9 54.2 154.05 54.45 153.66 51.79 153.9"/><polygon class="cls-2" points="52.19 156.29 56.05 154.78 56.22 154.32 52.19 156.29"/><polygon class="cls-2" points="55.21 157.09 62.55 152.58 63.3 151.82 63.3 150.93 62.32 151.92 55.21 157.09"/><polygon class="cls-1" points="65.35 151.85 58.06 158.23 62.22 155.77 60.53 159.99 64.11 156.77 64.09 160.34 67.27 154.19 68.12 151.93 68.11 150.66 66.8 152.21 66.45 152.12 66.02 152.02 65.35 151.85"/><polygon class="cls-1" points="66.7 137.09 65.35 151.85 65.72 152.04 66.29 152.23 66.8 152.21 68.25 136.23 66.7 137.09"/><polygon class="cls-2" points="68.25 136.23 69.11 138.34 68.09 151.36 66.8 152.21 66.86 151.07 68.25 136.23"/><polygon class="cls-2" points="58.06 158.23 62.1 156.08 62.22 155.77 58.06 158.23"/><polygon class="cls-2" points="60.53 159.99 64.11 157.27 64.11 156.77 60.53 159.99"/><polygon class="cls-2" points="64.09 160.34 67.54 153.48 68.12 151.93 68.25 152.78 67.9 153.69 64.09 160.34"/></svg>