<svg id="Ebene_1" data-name="Ebene 1" xmlns="http://www.w3.org/2000/svg" viewBox="0 0 183.83 185.18"><defs><style>.cls-1{fill:#e09f89;}.cls-2{fill:#ebc1b1;}.cls-3{fill:#db8d76;}.cls-4{fill:#e3a793;}.cls-5{fill:#e4ae9b;}.cls-6{fill:#d88169;}.cls-7{fill:#d27059;}.cls-8{fill:#d67d65;}.cls-9{fill:#b0284f;}.cls-10{fill:#fed386;}.cls-11{fill:#1e1e1c;}.cls-12{fill:#f5f5f5;}.cls-13{fill:#fcc864;}.cls-14{fill:#df9c87;}</style></defs><title>Insel_2</title><polygon class="cls-1" points="107.45 151.92 98.48 154.72 101.26 154.46 99 157.09 103.02 155.12 102.02 157.89 108.84 153.01 110.11 151.73 109.85 151.5 108.91 152.27 107.45 151.92"/><polygon class="cls-2" points="108.68 138.75 107.45 151.92 107.57 152.15 108.25 152.37 108.91 152.27 110.23 137.9 108.68 138.75"/><polygon class="cls-3" points="110.23 137.9 111.09 140.01 109.85 151.5 108.91 152.27 108.91 152.27 110.23 137.9"/><polygon class="cls-2" points="154.04 56.01 160.03 65.66 152.57 67.65 144.28 72.8 149.53 60.37 154.04 56.01"/><polygon class="cls-4" points="160.03 65.66 158.03 87.16 135.88 86.23 144.28 72.8 152.57 67.65 160.03 65.66"/><polygon class="cls-4" points="158.03 87.16 154.78 95.36 152.78 103.76 144.28 106.07 147.5 97.81 135.88 86.23 158.03 87.16"/><polygon class="cls-2" points="144.28 54.39 149.53 60.37 133.8 67.65 144.28 54.39"/><polygon class="cls-5" points="149.53 60.37 144.28 72.8 135.88 86.23 133.8 67.65 149.53 60.37"/><polygon class="cls-5" points="147.5 97.81 144.28 106.07 135.88 86.23 147.5 97.81"/><polygon class="cls-5" points="145.31 115.61 145.53 118.14 137.88 129.27 132.74 130.63 130.42 115.61 133.8 112.85 144.28 106.07 145.31 115.61"/><polygon class="cls-5" points="135.88 86.23 144.28 106.07 130.93 107.92 124.06 103.21 115.65 88 135.88 86.23"/><polygon class="cls-5" points="144.28 106.07 133.8 112.85 130.93 107.92 144.28 106.07"/><polygon class="cls-4" points="133.8 67.65 135.88 86.23 120.14 76.78 133.8 67.65"/><polygon class="cls-1" points="135.88 86.23 115.65 88 104.4 77.97 120.14 76.78 135.88 86.23"/><polygon class="cls-2" points="130.93 107.92 133.8 112.85 130.42 115.61 106.43 110.49 93.64 106.74 85.58 96.79 87.93 81.36 104.4 77.97 115.65 88 124.06 103.21 130.93 107.92"/><polygon class="cls-4" points="130.42 115.61 132.74 130.63 123.5 132.63 116.63 139.43 109.5 140.5 108.24 126.6 130.42 115.61"/><polygon class="cls-5" points="108.24 126.6 109.5 140.5 107.1 139.43 97.47 127.8 87.49 121.19 77.82 113.67 88.59 108.81 108.24 126.6"/><polygon class="cls-6" points="104.4 77.97 87.93 81.36 77.36 69.45 84.15 64.25 93.64 70.48 104.4 77.97"/><polygon class="cls-7" points="90.29 61.55 93.64 70.48 84.15 64.25 77.82 57.94 90.29 61.55"/><polygon class="cls-8" points="85.18 52.2 90.29 61.55 77.82 57.94 77.55 51.31 77.36 47.22 85.18 52.2"/><polygon class="cls-1" points="84.92 101.14 88.59 108.81 77.82 113.67 73.68 108.46 78.23 87.16 84.92 101.14"/><polygon class="cls-1" points="77.36 69.45 87.93 81.36 78.23 87.16 67.36 88 67.36 82.08 69.03 75.83 77.36 69.45"/><polygon class="cls-3" points="87.93 81.36 85.58 96.79 84.92 101.14 78.23 87.16 87.93 81.36"/><polygon class="cls-8" points="84.15 64.25 77.36 69.45 69.03 75.83 72.19 63.37 77.82 57.94 84.15 64.25"/><polygon class="cls-5" points="78.23 87.16 73.68 108.46 68.46 95.65 67.36 88 78.23 87.16"/><polygon class="cls-3" points="77.55 51.31 77.82 57.94 77.54 51.32 77.55 51.31"/><polygon class="cls-3" points="77.54 51.32 77.82 57.94 72.19 63.37 70.65 57.94 77.54 51.32"/><polygon class="cls-7" points="77.36 47.22 77.55 51.31 77.54 51.3 77.36 47.22"/><polygon class="cls-1" points="77.55 51.31 77.54 51.32 77.54 51.3 77.55 51.31"/><polygon class="cls-1" points="77.54 51.3 77.54 51.32 70.65 57.94 68.47 56.75 64.52 54.97 63.12 53.51 69.03 47.22 77.54 51.3"/><polygon class="cls-7" points="77.54 51.3 69.03 47.22 72.19 46.01 77.36 47.22 77.54 51.3"/><polygon class="cls-1" points="70.65 57.94 68.25 56.78 68.47 56.75 70.65 57.94"/><polygon class="cls-9" points="69.47 59.73 69.5 59.74 69.43 60.75 68.74 61.55 67.36 61 65.38 58.09 69.47 59.73"/><polygon class="cls-9" points="69.47 59.73 65.38 58.09 65.38 58.08 69.47 59.73"/><polygon class="cls-1" points="68.47 56.75 68.25 56.78 64.52 54.97 68.47 56.75"/><polygon class="cls-1" points="70.65 57.94 72.19 63.37 69.5 59.74 69.47 59.73 65.38 58.08 63.6 57.37 68.25 56.78 70.65 57.94"/><polygon class="cls-10" points="64.52 54.97 68.25 56.78 63.6 57.37 60.12 58.51 60.12 56.31 61.86 53.51 63.12 53.51 64.52 54.97"/><polygon class="cls-9" points="68.7 45.73 69.03 47.22 63.12 53.51 61.86 53.51 64.45 48.15 65.38 45.08 68.7 45.73"/><polygon class="cls-5" points="67.11 51.02 69.5 49.29 71.75 51.31 69.72 53.39 68.47 53.39 67.11 51.02"/><polygon class="cls-11" points="67.9 51.31 69.5 50.17 70.65 51.31 69.27 52.58 67.9 51.31"/><polygon class="cls-12" points="69.09 51.45 69.65 51.02 70.34 51.25 69.37 51.96 69.09 51.45"/><polygon class="cls-13" points="60.12 58.5 62.71 56.75 67.9 56.75 63.6 57.37 60.12 58.5"/><polygon class="cls-3" points="109.85 108.45 93.64 106.74 78.23 87.16 88.59 108.81 108.24 126.59 130.42 115.61 109.85 108.45"/><polygon class="cls-14" points="93.64 70.48 87.93 81.36 104.4 77.97 93.64 70.48"/><polygon class="cls-2" points="144.28 106.07 145.31 115.61 148.17 110.49 152.79 103.76 144.28 106.07"/><polygon class="cls-2" points="160.03 65.66 154.87 87.16 155.43 93.72 158.03 87.16 160.03 65.66"/><polygon class="cls-3" points="98.6 154.71 101.01 154.85 101.26 154.46 98.6 154.71"/><polygon class="cls-3" points="99 157.09 102.85 155.59 103.02 155.12 99 157.09"/><polygon class="cls-3" points="102.02 157.89 109.36 153.38 110.11 152.62 110.11 151.73 109.13 152.72 102.02 157.89"/><polygon class="cls-5" points="112.16 152.65 104.87 159.04 109.03 156.57 107.33 160.79 110.92 157.57 110.9 161.14 114.08 154.99 114.92 152.73 114.92 151.46 113.61 153.01 113.26 152.92 112.83 152.82 112.16 152.65"/><polygon class="cls-2" points="113.51 137.89 112.16 152.65 112.52 152.84 113.09 153.03 113.61 153.01 115.06 137.03 113.51 137.89"/><polygon class="cls-1" points="115.06 137.03 115.92 139.15 114.89 152.16 113.61 153.01 113.67 151.87 115.06 137.03"/><polygon class="cls-1" points="104.87 159.04 108.91 156.88 109.03 156.57 104.87 159.04"/><polygon class="cls-1" points="107.33 160.79 110.92 158.07 110.92 157.57 107.33 160.79"/><polygon class="cls-1" points="110.9 161.14 114.34 154.28 114.92 152.73 115.06 153.58 114.71 154.5 110.9 161.14"/></svg>