<svg id="Ebene_1" data-name="Ebene 1" xmlns="http://www.w3.org/2000/svg" viewBox="0 0 433.38 468.17"><defs><style>.cls-1{fill:#c488a8;}.cls-2{fill:#c07ea1;}.cls-3{fill:#c68bab;}.cls-4{fill:#ce9fb9;}.cls-5{fill:#ca96b2;}.cls-6{fill:#d6afc5;}.cls-7{fill:#bd779c;}.cls-8{fill:#d9b7cb;}.cls-9{fill:#1f897d;}.cls-10{fill:#409286;}.cls-11{fill:#569a8f;}.cls-12{fill:#328e82;}</style></defs><title>Insel_2</title><polygon class="cls-1" points="285.77 328.96 286.84 325.45 286.84 218.31 283.04 218.31 285.77 328.96"/><rect class="cls-2" x="280.54" y="223.93" width="5.3" height="105.04" transform="translate(566.38 552.89) rotate(-180)"/><rect class="cls-3" x="244.78" y="237.63" width="6.46" height="105.04" transform="translate(496.02 580.29) rotate(-180)"/><polygon class="cls-4" points="199.89 241.89 171.31 238.27 153.22 151.09 199.89 157.01 199.89 241.89"/><polygon class="cls-1" points="156.7 328.96 155.62 325.45 155.62 218.31 159.42 218.31 156.7 328.96"/><rect class="cls-5" x="199.89" y="157.01" width="43.63" height="84.88"/><polygon class="cls-6" points="171.31 238.27 153.22 229.1 153.22 151.09 171.31 153.39 171.31 238.27"/><polygon class="cls-3" points="243.52 241.89 272.09 238.27 290.19 151.09 243.52 157.01 243.52 241.89"/><polygon class="cls-2" points="272.09 238.27 290.19 229.1 290.19 151.09 272.09 153.39 272.09 238.27"/><polygon class="cls-7" points="288.94 145.7 297.53 154.06 222.46 122.96 288.94 145.7"/><polygon class="cls-2" points="297.53 154.06 256.8 159.51 222.46 122.96 297.53 154.06"/><polygon class="cls-5" points="256.8 159.51 188.81 159.51 221.18 122.96 222.46 122.96 256.8 159.51"/><polygon class="cls-4" points="188.81 159.51 221.18 122.96 145.88 152.43 188.81 159.51"/><polygon class="cls-6" points="145.88 152.43 221.18 122.96 152.96 144.31 145.88 152.43"/><polygon class="cls-1" points="297.53 154.06 297.53 157.4 256.8 163.71 256.8 159.51 297.53 154.06"/><rect class="cls-4" x="188.81" y="159.51" width="67.99" height="4.2"/><polygon class="cls-6" points="188.81 159.51 145.88 152.43 145.88 156.54 188.81 163.71 188.81 159.51"/><rect class="cls-8" x="156.62" y="223.93" width="5.3" height="105.04"/><rect class="cls-4" x="192.86" y="237.63" width="7.02" height="105.04"/><rect class="cls-2" x="209.92" y="189.05" width="24.26" height="49.14"/><rect class="cls-3" x="214.61" y="206.83" width="14.99" height="26.68"/><rect class="cls-3" x="214.61" y="195.08" width="14.99" height="9.63"/><polygon class="cls-2" points="189.96 181.5 181.24 181.5 176.89 189.05 181.24 196.59 189.96 196.59 194.32 189.05 189.96 181.5"/><polygon class="cls-3" points="188.62 183.82 182.59 183.82 179.57 189.05 182.59 194.27 188.62 194.27 191.63 189.05 188.62 183.82"/><rect class="cls-2" x="184.84" y="183.82" width="1.53" height="10.77"/><rect class="cls-2" x="184.84" y="182.46" width="1.53" height="13.16" transform="translate(-3.45 374.65) rotate(-90)"/><polygon class="cls-2" points="263.6 181.5 254.88 181.5 250.52 189.05 254.88 196.59 263.6 196.59 267.95 189.05 263.6 181.5"/><polygon class="cls-3" points="262.25 183.82 256.22 183.82 253.21 189.05 256.22 194.27 262.25 194.27 265.27 189.05 262.25 183.82"/><rect class="cls-2" x="258.47" y="183.82" width="1.53" height="10.77"/><rect class="cls-2" x="258.47" y="182.46" width="1.53" height="13.16" transform="translate(70.19 448.28) rotate(-90)"/><polygon class="cls-9" points="251.87 295.97 254.16 318.74 251.49 341.11 250.82 343.07 250.55 341.61 252.13 318.65 251.87 295.97"/><polygon class="cls-10" points="246.54 309.09 254.5 321.97 251.84 341.87 250.82 343.07 252.92 322.16 246.54 309.09"/><polygon class="cls-11" points="249.26 340.85 250.08 317.77 248.31 303.71 251.96 318.32 250.82 343.07 249.73 342.5 249.26 340.85"/><polygon class="cls-12" points="257.5 306.78 261.86 295.12 258.34 305.97 265.36 291.23 259.24 306.42 253.31 340.14 251 342.37 257.5 306.78"/><polygon class="cls-9" points="254.47 341.04 261.59 311.99 272.37 290.15 260.02 311.55 250.82 343.07 253.76 342.51 254.47 341.04"/><polygon class="cls-10" points="268.48 306 258.33 316.08 252.69 339.93 251.14 342.42 256.72 316.14 268.48 306"/><polygon class="cls-11" points="267.08 319.99 257.83 324.02 252.69 342.65 250.82 343.07 256.75 322.8 267.08 319.99"/><polygon class="cls-4" points="216.18 344.55 215.64 345.21 212.67 344.55 212.67 239.51 216.18 239.51 216.18 344.55"/><polygon class="cls-4" points="232.08 344.55 231.55 345.21 228.57 344.55 228.57 239.51 232.08 239.51 232.08 344.55"/><rect class="cls-4" x="221.03" y="240.83" width="3.51" height="18.06" transform="translate(-27.08 472.64) rotate(-90)"/><rect class="cls-4" x="221.03" y="254.59" width="3.51" height="18.06" transform="translate(-40.84 486.4) rotate(-90)"/><rect class="cls-4" x="221.03" y="268.36" width="3.51" height="18.06" transform="translate(-54.6 500.17) rotate(-90)"/><rect class="cls-4" x="221.03" y="282.12" width="3.51" height="18.06" transform="translate(-68.37 513.93) rotate(-90)"/><rect class="cls-4" x="221.03" y="295.88" width="3.51" height="18.06" transform="translate(-82.13 527.69) rotate(-90)"/><rect class="cls-4" x="221.03" y="309.65" width="3.51" height="18.06" transform="translate(-95.89 541.46) rotate(-90)"/><rect class="cls-6" x="212.13" y="240.17" width="3.51" height="105.04"/><rect class="cls-6" x="228.04" y="240.17" width="3.51" height="105.04"/><rect class="cls-6" x="220.49" y="241.49" width="3.51" height="18.06" transform="translate(-28.27 472.77) rotate(-90)"/><rect class="cls-6" x="220.49" y="255.25" width="3.51" height="18.06" transform="translate(-42.04 486.53) rotate(-90)"/><rect class="cls-6" x="220.49" y="269.02" width="3.51" height="18.06" transform="translate(-55.8 500.29) rotate(-90)"/><rect class="cls-6" x="220.49" y="282.78" width="3.51" height="18.06" transform="translate(-69.56 514.05) rotate(-90)"/><rect class="cls-6" x="220.49" y="296.54" width="3.51" height="18.06" transform="translate(-83.32 527.82) rotate(-90)"/><rect class="cls-6" x="220.49" y="310.31" width="3.51" height="18.06" transform="translate(-97.09 541.58) rotate(-90)"/><polygon class="cls-9" points="162.25 268.61 155.84 297.78 155.93 327.18 156.5 329.83 157.07 327.98 158.49 297.98 162.25 268.61"/><polygon class="cls-12" points="167.17 286.42 154.92 301.92 155.36 328.12 156.5 329.83 156.94 302.41 167.17 286.42"/><polygon class="cls-10" points="158.86 327.18 161.28 297.14 165.69 279.19 158.76 297.57 156.5 329.83 158 329.25 158.86 327.18"/><polygon class="cls-9" points="153.32 281.78 149.42 266 152.35 280.61 145.48 260.43 151.12 281.04 153.72 325.65 156.37 328.89 153.32 281.78"/><polygon class="cls-9" points="152.08 326.65 147.23 287.92 136.56 257.98 149.33 287.58 156.5 329.83 152.78 328.66 152.08 326.65"/><polygon class="cls-12" points="139.2 279.11 150.84 293.71 154.55 325.48 156.19 328.94 152.92 294.02 139.2 279.11"/><polygon class="cls-11" points="138.91 297.46 150.28 304.07 154.15 329.01 156.5 329.83 151.87 302.66 138.91 297.46"/></svg>