<svg id="Ebene_1" data-name="Ebene 1" xmlns="http://www.w3.org/2000/svg" viewBox="0 0 318.05 341.14"><defs><style>.cls-1{fill:#d27059;}.cls-2{fill:#d67d65;}.cls-3{fill:#db8d76;}.cls-4{fill:#e4ae9b;}.cls-5{fill:#df9c87;}.cls-6{fill:#ebc1b1;}.cls-7{fill:#1f897d;}.cls-8{fill:#409286;}.cls-9{fill:#569a8f;}.cls-10{fill:#328e82;}</style></defs><title>Insel_2</title><polygon class="cls-1" points="218.56 265.6 219.64 262.09 219.64 154.95 215.84 154.95 218.56 265.6"/><rect class="cls-2" x="213.34" y="160.56" width="5.3" height="105.04" transform="translate(431.98 426.16) rotate(-180)"/><rect class="cls-3" x="177.58" y="174.26" width="6.46" height="105.04" transform="translate(361.62 453.56) rotate(-180)"/><polygon class="cls-4" points="132.69 178.53 104.11 174.9 86.02 87.73 132.69 93.65 132.69 178.53"/><polygon class="cls-4" points="89.5 265.6 88.42 262.09 88.42 154.95 92.22 154.95 89.5 265.6"/><rect class="cls-5" x="132.69" y="93.65" width="43.63" height="84.88"/><polygon class="cls-6" points="104.11 174.9 86.02 165.73 86.02 87.73 104.11 90.02 104.11 174.9"/><polygon class="cls-3" points="176.32 178.53 204.89 174.9 222.99 87.73 176.32 93.65 176.32 178.53"/><polygon class="cls-2" points="204.89 174.9 222.99 165.73 222.99 87.73 204.89 90.02 204.89 174.9"/><polygon class="cls-1" points="221.74 82.34 230.33 90.69 155.26 59.6 221.74 82.34"/><polygon class="cls-2" points="230.33 90.69 189.6 96.14 155.26 59.6 230.33 90.69"/><polygon class="cls-3" points="189.6 96.14 121.61 96.14 153.98 59.6 155.26 59.6 189.6 96.14"/><polygon class="cls-5" points="121.61 96.14 153.98 59.6 78.68 89.07 121.61 96.14"/><polygon class="cls-6" points="78.68 89.07 153.98 59.6 85.76 80.94 78.68 89.07"/><polygon class="cls-3" points="230.33 90.69 230.33 94.03 189.6 100.34 189.6 96.14 230.33 90.69"/><rect class="cls-4" x="121.61" y="96.14" width="67.99" height="4.2"/><polygon class="cls-6" points="121.61 96.14 78.68 89.07 78.68 93.18 121.61 100.34 121.61 96.14"/><rect class="cls-6" x="89.42" y="160.56" width="5.3" height="105.04"/><rect class="cls-4" x="125.66" y="174.26" width="7.02" height="105.04"/><rect class="cls-2" x="142.72" y="125.68" width="24.26" height="49.14"/><rect class="cls-5" x="147.41" y="143.46" width="14.99" height="26.68"/><rect class="cls-5" x="147.41" y="131.71" width="14.99" height="9.63"/><polygon class="cls-2" points="122.76 118.14 114.04 118.14 109.69 125.68 114.04 133.23 122.76 133.23 127.11 125.68 122.76 118.14"/><polygon class="cls-5" points="121.42 120.46 115.39 120.46 112.37 125.68 115.39 130.9 121.42 130.9 124.43 125.68 121.42 120.46"/><rect class="cls-2" x="117.64" y="120.46" width="1.53" height="10.77"/><rect class="cls-2" x="117.64" y="119.1" width="1.53" height="13.16" transform="translate(-7.28 244.08) rotate(-90)"/><polygon class="cls-2" points="196.4 118.14 187.68 118.14 183.32 125.68 187.68 133.23 196.4 133.23 200.75 125.68 196.4 118.14"/><polygon class="cls-5" points="195.05 120.46 189.02 120.46 186.01 125.68 189.02 130.9 195.05 130.9 198.07 125.68 195.05 120.46"/><rect class="cls-2" x="191.27" y="120.46" width="1.53" height="10.77"/><rect class="cls-2" x="191.27" y="119.1" width="1.53" height="13.16" transform="translate(66.36 317.72) rotate(-90)"/><polygon class="cls-7" points="214.62 231.03 212.94 247.65 214.89 263.98 215.38 265.41 215.58 264.34 214.42 247.58 214.62 231.03"/><polygon class="cls-8" points="218.5 240.6 212.7 250.01 214.63 264.54 215.38 265.41 213.85 250.15 218.5 240.6"/><polygon class="cls-9" points="216.52 263.79 215.92 246.94 217.21 236.68 214.55 247.34 215.38 265.41 216.18 264.99 216.52 263.79"/><polygon class="cls-10" points="210.5 238.92 207.32 230.4 209.89 238.33 204.77 227.56 209.23 238.65 213.56 263.27 215.25 264.9 210.5 238.92"/><polygon class="cls-7" points="212.72 263.93 207.52 242.72 199.65 226.78 208.66 242.4 215.38 265.41 213.24 265 212.72 263.93"/><polygon class="cls-8" points="202.49 238.35 209.9 245.71 214.01 263.12 215.15 264.94 211.07 245.75 202.49 238.35"/><polygon class="cls-9" points="203.51 248.56 210.26 251.5 214.02 265.11 215.38 265.41 211.05 250.62 203.51 248.56"/><polygon class="cls-5" points="148.98 281.19 148.44 281.84 145.47 281.19 145.47 176.15 148.98 176.15 148.98 281.19"/><polygon class="cls-5" points="164.88 281.19 164.35 281.84 161.37 281.19 161.37 176.15 164.88 176.15 164.88 281.19"/><rect class="cls-5" x="153.83" y="177.47" width="3.51" height="18.06" transform="translate(-30.92 342.08) rotate(-90)"/><rect class="cls-5" x="153.83" y="191.23" width="3.51" height="18.06" transform="translate(-44.68 355.84) rotate(-90)"/><rect class="cls-5" x="153.83" y="204.99" width="3.51" height="18.06" transform="translate(-58.44 369.6) rotate(-90)"/><rect class="cls-5" x="153.83" y="218.76" width="3.51" height="18.06" transform="translate(-72.2 383.37) rotate(-90)"/><rect class="cls-5" x="153.83" y="232.52" width="3.51" height="18.06" transform="translate(-85.97 397.13) rotate(-90)"/><rect class="cls-5" x="153.83" y="246.28" width="3.51" height="18.06" transform="translate(-99.73 410.89) rotate(-90)"/><rect class="cls-4" x="144.93" y="176.81" width="3.51" height="105.04"/><rect class="cls-4" x="160.83" y="176.81" width="3.51" height="105.04"/><rect class="cls-4" x="153.29" y="178.13" width="3.51" height="18.06" transform="translate(-32.11 342.2) rotate(-90)"/><rect class="cls-4" x="153.29" y="191.89" width="3.51" height="18.06" transform="translate(-45.87 355.96) rotate(-90)"/><rect class="cls-4" x="153.29" y="205.65" width="3.51" height="18.06" transform="translate(-59.64 369.73) rotate(-90)"/><rect class="cls-4" x="153.29" y="219.42" width="3.51" height="18.06" transform="translate(-73.4 383.49) rotate(-90)"/><rect class="cls-4" x="153.29" y="233.18" width="3.51" height="18.06" transform="translate(-87.16 397.25) rotate(-90)"/><rect class="cls-4" x="153.29" y="246.94" width="3.51" height="18.06" transform="translate(-100.92 411.01) rotate(-90)"/><polygon class="cls-7" points="119.72 225.37 125.44 251.38 125.36 277.58 124.86 279.94 124.34 278.29 123.08 251.55 119.72 225.37"/><polygon class="cls-10" points="115.34 241.25 126.26 255.07 125.87 278.42 124.86 279.94 124.46 255.5 115.34 241.25"/><polygon class="cls-8" points="122.75 277.58 120.6 250.81 116.66 234.8 122.84 251.19 124.86 279.94 123.51 279.43 122.75 277.58"/><polygon class="cls-7" points="127.69 237.11 131.16 223.04 128.55 236.06 134.68 218.08 129.65 236.46 127.33 276.22 124.97 279.11 127.69 237.11"/><polygon class="cls-7" points="128.79 277.11 133.11 242.58 142.63 215.9 131.25 242.28 124.86 279.94 128.17 278.9 128.79 277.11"/><polygon class="cls-10" points="140.27 234.74 129.9 247.75 126.59 276.06 125.13 279.15 128.05 248.03 140.27 234.74"/><polygon class="cls-9" points="140.54 251.09 130.4 256.98 126.95 279.21 124.86 279.94 128.98 255.73 140.54 251.09"/></svg>