<svg id="Ebene_1" data-name="Ebene 1" xmlns="http://www.w3.org/2000/svg" viewBox="0 0 316.69 343.39"><defs><style>.cls-1{fill:#e6e182;}.cls-2{fill:#f2ed93;}.cls-3{fill:#f3efa1;}.cls-4{fill:#f6f3bd;}.cls-5{fill:#f5f1b0;}.cls-6{fill:#f9f6cd;}.cls-7{fill:#1f897d;}.cls-8{fill:#409286;}.cls-9{fill:#569a8f;}.cls-10{fill:#328e82;}</style></defs><title>Insel_2</title><polygon class="cls-1" points="222.41 269.18 223.48 265.67 223.48 158.53 219.68 158.53 222.41 269.18"/><rect class="cls-2" x="217.18" y="164.14" width="5.3" height="105.04" transform="translate(439.66 433.32) rotate(-180)"/><rect class="cls-3" x="181.42" y="177.84" width="6.46" height="105.04" transform="translate(369.3 460.72) rotate(-180)"/><polygon class="cls-4" points="136.53 182.11 107.95 178.48 89.86 91.31 136.53 97.23 136.53 182.11"/><polygon class="cls-5" points="93.34 269.18 92.26 265.67 92.26 158.53 96.06 158.53 93.34 269.18"/><rect class="cls-5" x="136.53" y="97.23" width="43.63" height="84.88"/><polygon class="cls-6" points="107.95 178.48 89.86 169.31 89.86 91.31 107.95 93.6 107.95 178.48"/><polygon class="cls-3" points="180.16 182.11 208.73 178.48 226.83 91.31 180.16 97.23 180.16 182.11"/><polygon class="cls-2" points="208.73 178.48 226.83 169.31 226.83 91.31 208.73 93.6 208.73 178.48"/><polygon class="cls-1" points="225.58 85.92 234.17 94.27 159.1 63.18 225.58 85.92"/><polygon class="cls-2" points="234.17 94.27 193.44 99.72 159.1 63.18 234.17 94.27"/><polygon class="cls-3" points="193.44 99.72 125.45 99.72 157.82 63.18 159.1 63.18 193.44 99.72"/><polygon class="cls-5" points="125.45 99.72 157.82 63.18 82.52 92.65 125.45 99.72"/><polygon class="cls-4" points="82.52 92.65 157.82 63.18 89.6 84.52 82.52 92.65"/><polygon class="cls-3" points="234.17 94.27 234.17 97.61 193.44 103.92 193.44 99.72 234.17 94.27"/><rect class="cls-4" x="125.45" y="99.72" width="67.99" height="4.2"/><polygon class="cls-6" points="125.45 99.72 82.52 92.65 82.52 96.76 125.45 103.92 125.45 99.72"/><rect class="cls-6" x="93.26" y="164.14" width="5.3" height="105.04"/><rect class="cls-4" x="129.51" y="177.84" width="7.02" height="105.04"/><rect class="cls-1" x="146.56" y="129.26" width="24.26" height="49.14"/><rect class="cls-5" x="151.25" y="147.04" width="14.99" height="26.68"/><rect class="cls-5" x="151.25" y="135.29" width="14.99" height="9.63"/><polygon class="cls-1" points="126.6 121.71 117.88 121.71 113.53 129.26 117.88 136.81 126.6 136.81 130.96 129.26 126.6 121.71"/><polygon class="cls-5" points="125.26 124.04 119.23 124.04 116.21 129.26 119.23 134.48 125.26 134.48 128.27 129.26 125.26 124.04"/><rect class="cls-1" x="121.48" y="124.04" width="1.53" height="10.77"/><rect class="cls-1" x="121.48" y="122.68" width="1.53" height="13.16" transform="translate(-7.02 251.5) rotate(-90)"/><polygon class="cls-1" points="200.24 121.71 191.52 121.71 187.16 129.26 191.52 136.81 200.24 136.81 204.59 129.26 200.24 121.71"/><polygon class="cls-5" points="198.89 124.04 192.86 124.04 189.85 129.26 192.86 134.48 198.89 134.48 201.91 129.26 198.89 124.04"/><rect class="cls-1" x="195.11" y="124.04" width="1.53" height="10.77"/><rect class="cls-1" x="195.11" y="122.68" width="1.53" height="13.16" transform="translate(66.62 325.14) rotate(-90)"/><polygon class="cls-7" points="190.31 220.18 193.39 250.68 189.82 280.65 188.92 283.28 188.55 281.33 190.67 250.57 190.31 220.18"/><polygon class="cls-8" points="183.19 237.76 193.84 255.02 190.28 281.68 188.92 283.28 191.73 255.27 183.19 237.76"/><polygon class="cls-9" points="186.83 280.31 187.93 249.39 185.56 230.56 190.44 250.13 188.92 283.28 187.45 282.52 186.83 280.31"/><polygon class="cls-10" points="197.86 234.66 203.71 219.03 198.99 233.58 208.39 213.82 200.19 234.18 192.24 279.36 189.16 282.35 197.86 234.66"/><polygon class="cls-7" points="193.8 280.57 203.34 241.65 217.78 212.39 201.24 241.06 188.92 283.28 192.85 282.54 193.8 280.57"/><polygon class="cls-8" points="212.57 233.62 198.97 247.12 191.42 279.08 189.34 282.42 196.82 247.2 212.57 233.62"/><polygon class="cls-9" points="210.7 252.36 198.31 257.76 191.41 282.73 188.92 283.28 196.86 256.13 210.7 252.36"/><polygon class="cls-2" points="152.82 284.76 152.28 285.42 149.31 284.76 149.31 179.73 152.82 179.73 152.82 284.76"/><polygon class="cls-2" points="168.72 284.76 168.19 285.42 165.21 284.76 165.21 179.73 168.72 179.73 168.72 284.76"/><rect class="cls-2" x="157.67" y="181.05" width="3.51" height="18.06" transform="translate(-30.65 349.5) rotate(-90)"/><rect class="cls-2" x="157.67" y="194.81" width="3.51" height="18.06" transform="translate(-44.42 363.26) rotate(-90)"/><rect class="cls-2" x="157.67" y="208.57" width="3.51" height="18.06" transform="translate(-58.18 377.02) rotate(-90)"/><rect class="cls-2" x="157.67" y="222.34" width="3.51" height="18.06" transform="translate(-71.94 390.79) rotate(-90)"/><rect class="cls-2" x="157.67" y="236.1" width="3.51" height="18.06" transform="translate(-85.7 404.55) rotate(-90)"/><rect class="cls-2" x="157.67" y="249.86" width="3.51" height="18.06" transform="translate(-99.47 418.31) rotate(-90)"/><rect class="cls-4" x="148.77" y="180.39" width="3.51" height="105.04"/><rect class="cls-4" x="164.68" y="180.39" width="3.51" height="105.04"/><rect class="cls-4" x="157.13" y="181.71" width="3.51" height="18.06" transform="translate(-31.85 349.62) rotate(-90)"/><rect class="cls-4" x="157.13" y="195.47" width="3.51" height="18.06" transform="translate(-45.61 363.38) rotate(-90)"/><rect class="cls-4" x="157.13" y="209.23" width="3.51" height="18.06" transform="translate(-59.37 377.15) rotate(-90)"/><rect class="cls-4" x="157.13" y="222.99" width="3.51" height="18.06" transform="translate(-73.14 390.91) rotate(-90)"/><rect class="cls-4" x="157.13" y="236.76" width="3.51" height="18.06" transform="translate(-86.9 404.67) rotate(-90)"/><rect class="cls-4" x="157.13" y="250.52" width="3.51" height="18.06" transform="translate(-100.66 418.44) rotate(-90)"/><polygon class="cls-7" points="136.08 238.25 131.26 260.18 131.33 282.27 131.75 284.26 132.19 282.87 133.25 260.32 136.08 238.25"/><polygon class="cls-10" points="139.78 251.64 130.57 263.29 130.9 282.98 131.75 284.26 132.08 263.65 139.78 251.64"/><polygon class="cls-8" points="133.53 282.27 135.35 259.7 138.66 246.2 133.46 260.02 131.75 284.26 132.88 283.83 133.53 282.27"/><polygon class="cls-7" points="129.37 248.15 126.44 236.29 128.63 247.27 123.47 232.1 127.71 247.6 129.67 281.13 131.66 283.56 129.37 248.15"/><polygon class="cls-7" points="128.44 281.87 124.79 252.76 116.77 230.27 126.37 252.51 131.75 284.26 128.96 283.38 128.44 281.87"/><polygon class="cls-10" points="118.76 246.15 127.5 257.12 130.29 280.99 131.52 283.59 129.06 257.35 118.76 246.15"/><polygon class="cls-9" points="118.53 259.94 127.08 264.91 129.99 283.65 131.75 284.26 128.28 263.85 118.53 259.94"/></svg>