<svg id="Ebene_1" data-name="Ebene 1" xmlns="http://www.w3.org/2000/svg" viewBox="0 0 274.05 217.47"><defs><style>.cls-1{fill:#f2ed93;}.cls-2{fill:#e6e182;}.cls-3{fill:#f5f1b0;}.cls-4{fill:#f9f6cd;}.cls-5{fill:#fcfbe6;}.cls-6{fill:#f6f3bd;}.cls-7{fill:#f3efa1;}.cls-8{fill:#2e2628;}.cls-9{fill:#1e1e1c;}.cls-10{fill:#e4ae9b;}.cls-11{fill:#585857;}.cls-12{fill:#f5f5f5;}</style></defs><title>Insel_2</title><polygon class="cls-1" points="93.86 113.13 103.35 165.63 108.78 168.14 103.15 106.43 93.86 113.13"/><polygon class="cls-2" points="108.97 170.14 103.15 106.43 105.73 112.22 109.39 123.76 108.97 170.14"/><polygon class="cls-2" points="102.88 163.74 108.78 168.14 108.97 170.14 105.28 171.36 102.7 169.99 102.88 163.74"/><polygon class="cls-1" points="173.11 111.51 182.61 164.02 188.04 166.52 182.4 104.82 173.11 111.51"/><polygon class="cls-2" points="188.23 168.53 182.4 104.82 184.98 110.6 190.46 123.72 188.23 168.53"/><polygon class="cls-2" points="182.14 162.13 188.04 166.52 188.23 168.53 184.54 169.75 181.96 168.38 182.14 162.13"/><polygon class="cls-3" points="102.12 80.66 120.49 126.5 86.47 115.63 102.12 80.66"/><polygon class="cls-2" points="116.91 133.09 86.47 115.63 120.49 126.5 116.91 133.09"/><polygon class="cls-4" points="224.06 73.89 214.64 57.1 200.47 74.25 224.06 73.89"/><polygon class="cls-4" points="224.06 73.89 215.25 98.77 200.47 74.25 224.06 73.89"/><polygon class="cls-5" points="208.99 49.18 186.43 36.87 168.53 31.58 125.94 33.77 101.24 42.64 129.92 44.39 178.55 43.5 208.99 49.18"/><polygon class="cls-6" points="129.92 44.39 181.69 98.72 152.91 125.56 102.12 80.66 129.92 44.39"/><polygon class="cls-3" points="215.25 98.77 200.47 74.25 181.69 98.72 215.25 98.77"/><polygon class="cls-7" points="215.25 98.77 182.74 131.42 152.91 125.56 181.69 98.72 215.25 98.77"/><polygon class="cls-4" points="200.47 74.25 181.69 98.72 148.16 63.53 178.55 43.5 200.47 74.25"/><polygon class="cls-4" points="200.47 74.25 214.64 57.1 208.99 49.18 178.55 43.5 200.47 74.25"/><polygon class="cls-6" points="129.92 44.39 178.55 43.5 148.16 63.53 129.92 44.39"/><polygon class="cls-4" points="186.43 36.87 178.55 43.5 168.53 31.58 186.43 36.87"/><polygon class="cls-4" points="129.92 44.39 102.12 80.66 72.42 93.95 67.97 90.46 66.74 82.37 97.64 41.73 129.92 44.39"/><polygon class="cls-3" points="102.12 80.66 72.42 93.95 86.47 115.63 102.12 80.66"/><polygon class="cls-3" points="215.25 98.77 198.96 128.7 182.74 131.42 202.26 111.87 215.25 98.77"/><polygon class="cls-1" points="182.74 131.42 152.91 125.56 120.49 126.5 148.85 135.31 182.74 131.42"/><polygon class="cls-3" points="120.49 126.5 148.85 135.31 116.91 133.09 120.49 126.5"/><polygon class="cls-1" points="152.91 125.56 102.12 80.66 120.49 126.5 152.91 125.56"/><polygon class="cls-5" points="214.64 75.51 216.19 68.57 225.21 67.86 214.64 75.51"/><polygon class="cls-3" points="215.06 79.4 219.9 86.72 226.76 84.88 215.06 79.4"/><polygon class="cls-4" points="215.06 79.4 214.64 75.51 225.21 67.86 228.58 81.94 226.76 84.88 215.06 79.4"/><polygon class="cls-1" points="225.21 67.86 228.58 81.94 231.84 73.88 225.21 67.86"/><polygon class="cls-3" points="75.57 29.2 80.44 26.57 83.11 26.72 84.33 29.4 83.8 32.46 81.95 33 75.57 29.2"/><polygon class="cls-4" points="51.19 63.4 41.54 64.81 35.1 60.27 36.09 58.04 43.19 56.31 51.19 63.4"/><polygon class="cls-8" points="36.09 58.04 34.94 53.59 43.19 56.31 36.09 58.04"/><polygon class="cls-5" points="34.94 53.59 56.97 35.35 69.42 39.23 43.19 56.31 34.94 53.59"/><polygon class="cls-4" points="56.97 35.35 64.52 30 71.24 28.59 69.42 39.23 56.97 35.35"/><polygon class="cls-6" points="71.24 28.59 69.42 39.23 84.24 36.29 80.4 30.07 71.24 28.59"/><polygon class="cls-6" points="43.19 56.31 51.19 63.4 70.83 62.83 59.28 45.66 43.19 56.31"/><polygon class="cls-4" points="59.32 45.7 69.42 39.23 84.24 36.29 86.88 56.01 70.87 62.86 59.32 45.7"/><polygon class="cls-4" points="57.8 71.59 51.19 63.4 70.83 62.83 75.2 73.47 57.8 71.59"/><polygon class="cls-3" points="70.83 62.83 75.2 73.47 86.83 55.98 70.83 62.83"/><polygon class="cls-5" points="40.22 70 41.32 73.36 46.82 76.03 46.65 70.33 41.15 68.98 40.22 70"/><polygon class="cls-5" points="35.1 60.27 41.54 64.81 36.7 63.96 35.1 60.27"/><polygon class="cls-3" points="55.82 69.12 46.82 76.03 57.8 71.59 55.82 69.12"/><polygon class="cls-9" points="70.42 40.55 74.62 38.49 78.34 40.14 74.54 42.69 70.42 40.55"/><polygon class="cls-4" points="44.65 70.19 51.19 63.4 55.82 69.12 46.82 76.03 44.65 70.19"/><polygon class="cls-10" points="41.15 68.98 45.61 64.23 51.19 63.4 44.65 70.19 42.32 70.5 41.15 68.98"/><polygon class="cls-4" points="82.15 32.93 83.8 32.46 94.27 30.45 88.42 33.96 84.24 36.29 82.15 32.93"/><polygon class="cls-6" points="84.24 36.29 94.27 30.45 86.84 41.13 84.24 36.29"/><polygon class="cls-4" points="86.84 41.13 94.27 30.45 98.15 27.73 105.96 26.07 107.11 27.78 103.14 35.46 98.28 40.11 93.24 42.46 90.64 44.85 89.61 41.31 86.84 41.13"/><polygon class="cls-3" points="93.17 39.97 93.82 38.4 94.94 37.94 95.85 35.06 95.54 32.68 104.9 28.28 99.79 35.47 97.01 38.55 93.17 39.97"/><polygon class="cls-6" points="84.24 36.29 86.83 55.98 90.64 44.85 89.61 41.31 84.24 36.29"/><polygon class="cls-11" points="35.63 54.27 36.19 56.43 39.55 55.59 35.63 54.27"/><polygon class="cls-12" points="74.72 40.56 75.7 39.79 76.92 40.2 75.21 41.46 74.72 40.56"/><polygon class="cls-3" points="68.11 81.25 64.36 72.33 75.2 73.47 88.29 81.6 68.11 81.25"/><polygon class="cls-6" points="75.2 73.47 86.83 55.98 103.54 60.36 88.29 81.6 75.2 73.47"/><polygon class="cls-3" points="86.83 55.98 90.64 44.85 103.54 60.36 86.83 55.98"/><polygon class="cls-3" points="103.54 60.36 109.02 42.93 101.56 36.99 93.24 42.46 90.64 44.85 103.54 60.36"/><polygon class="cls-4" points="104.83 112.52 114.33 165.03 120.12 169.19 114.12 105.83 104.83 112.52"/><polygon class="cls-1" points="119.7 165.29 114.12 105.83 116.7 111.61 120.36 123.16 119.7 165.29"/><polygon class="cls-2" points="114.23 164.8 120.12 169.19 120.32 171.19 116.63 172.41 114.04 171.04 114.23 164.8"/><polygon class="cls-4" points="184.09 106.95 194.21 162.93 200.39 167.36 193.99 99.81 184.09 106.95"/><polygon class="cls-1" points="199.94 163.2 193.99 99.81 196.74 105.98 203.17 119.81 199.94 163.2"/><polygon class="cls-2" points="194.1 162.68 200.39 167.36 200.59 169.5 196.66 170.8 193.91 169.34 194.1 162.68"/></svg>