<svg id="Ebene_1" data-name="Ebene 1" xmlns="http://www.w3.org/2000/svg" viewBox="0 0 274.05 230.43"><defs><style>.cls-1{fill:#ebe0e0;}.cls-2{fill:#d5c1c2;}.cls-3{fill:#e5d8d8;}.cls-4{fill:#f1e8e8;}.cls-5{fill:#fdfcfc;}.cls-6{fill:#eadfdf;}.cls-7{fill:#f3ebeb;}.cls-8{fill:#f5efef;}.cls-9{fill:#fbf8f8;}.cls-10{fill:#ede3e3;}.cls-11{fill:#2e2628;}.cls-12{fill:#1e1e1c;}.cls-13{fill:#d0baba;}.cls-14{fill:#e7dbdc;}.cls-15{fill:#585857;}.cls-16{fill:#f5f5f5;}.cls-17{fill:#dcc;}</style></defs><title>Insel_2</title><polygon class="cls-1" points="99.73 126.75 109.22 179.26 114.66 181.76 109.02 120.05 99.73 126.75"/><polygon class="cls-2" points="114.85 183.76 109.02 120.05 111.6 125.84 115.26 137.38 114.85 183.76"/><polygon class="cls-2" points="108.76 177.37 114.66 181.76 114.85 183.76 111.16 184.98 108.57 183.61 108.76 177.37"/><polygon class="cls-1" points="178.99 125.13 188.48 177.64 193.91 180.15 188.28 118.44 178.99 125.13"/><polygon class="cls-2" points="194.1 182.15 188.28 118.44 190.86 124.23 196.33 137.34 194.1 182.15"/><polygon class="cls-2" points="188.01 175.75 193.91 180.15 194.1 182.15 190.41 183.37 187.83 182 188.01 175.75"/><polygon class="cls-3" points="107.99 94.28 126.37 140.13 92.34 129.25 107.99 94.28"/><polygon class="cls-3" points="122.79 146.71 92.34 129.25 126.37 140.13 122.79 146.71"/><polygon class="cls-4" points="229.93 87.52 220.51 70.73 206.34 87.88 229.93 87.52"/><polygon class="cls-4" points="229.93 87.52 221.12 112.39 206.34 87.88 229.93 87.52"/><polygon class="cls-5" points="214.86 62.8 192.31 50.49 174.41 45.21 131.81 47.4 107.11 56.26 135.79 58.01 184.43 57.12 214.86 62.8"/><polygon class="cls-4" points="135.79 58.01 187.56 112.34 158.78 139.19 107.99 94.28 135.79 58.01"/><polygon class="cls-6" points="221.12 112.39 206.34 87.88 187.56 112.34 221.12 112.39"/><polygon class="cls-3" points="221.12 112.39 188.61 145.04 158.78 139.19 187.56 112.34 221.12 112.39"/><polygon class="cls-7" points="206.34 87.88 187.56 112.34 154.04 77.16 184.43 57.12 206.34 87.88"/><polygon class="cls-8" points="206.34 87.88 220.51 70.73 214.86 62.8 184.43 57.12 206.34 87.88"/><polygon class="cls-4" points="135.79 58.01 184.43 57.12 154.04 77.16 135.79 58.01"/><polygon class="cls-9" points="192.31 50.49 184.43 57.12 174.41 45.21 192.31 50.49"/><polygon class="cls-8" points="135.79 58.01 107.99 94.28 78.29 107.57 73.85 104.08 72.62 96 103.52 55.36 135.79 58.01"/><polygon class="cls-3" points="107.99 94.28 78.29 107.57 92.34 129.25 107.99 94.28"/><polygon class="cls-10" points="221.12 112.39 204.84 142.33 188.61 145.04 208.14 125.49 221.12 112.39"/><polygon class="cls-6" points="188.61 145.04 158.78 139.19 126.37 140.13 154.73 148.93 188.61 145.04"/><polygon class="cls-3" points="126.37 140.13 154.73 148.93 122.79 146.71 126.37 140.13"/><polygon class="cls-6" points="158.78 139.19 107.99 94.28 126.37 140.13 158.78 139.19"/><polygon class="cls-3" points="220.51 89.13 222.06 82.19 231.08 81.48 220.51 89.13"/><polygon class="cls-3" points="220.94 93.02 225.78 100.34 232.64 98.5 220.94 93.02"/><polygon class="cls-8" points="220.94 93.02 220.51 89.13 231.08 81.48 234.46 95.57 232.64 98.5 220.94 93.02"/><polygon class="cls-3" points="231.08 81.48 234.46 95.57 237.71 87.5 231.08 81.48"/><polygon class="cls-2" points="81.44 42.83 86.31 40.2 88.99 40.34 90.21 43.02 89.67 46.09 87.82 46.62 81.44 42.83"/><polygon class="cls-8" points="57.06 77.03 47.41 78.43 40.98 73.89 41.97 71.66 49.06 69.93 57.06 77.03"/><polygon class="cls-11" points="41.97 71.66 40.81 67.21 49.06 69.93 41.97 71.66"/><polygon class="cls-5" points="40.81 67.21 62.84 48.97 75.3 52.85 49.06 69.93 40.81 67.21"/><polygon class="cls-8" points="62.84 48.97 70.39 43.63 77.11 42.21 75.3 52.85 62.84 48.97"/><polygon class="cls-4" points="77.11 42.21 75.3 52.85 90.11 49.91 86.27 43.69 77.11 42.21"/><polygon class="cls-4" points="49.06 69.93 57.06 77.03 76.7 76.45 65.15 59.29 49.06 69.93"/><polygon class="cls-8" points="65.2 59.32 75.3 52.85 90.11 49.91 92.75 69.63 76.75 76.48 65.2 59.32"/><polygon class="cls-8" points="63.67 85.21 57.06 77.03 76.7 76.45 81.08 87.09 63.67 85.21"/><polygon class="cls-3" points="76.7 76.45 81.08 87.09 92.71 69.6 76.7 76.45"/><polygon class="cls-5" points="46.09 83.63 47.19 86.98 52.69 89.65 52.53 83.96 47.02 82.6 46.09 83.63"/><polygon class="cls-5" points="40.98 73.89 47.41 78.43 42.57 77.58 40.98 73.89"/><polygon class="cls-3" points="61.69 82.74 52.69 89.65 63.67 85.21 61.69 82.74"/><polygon class="cls-12" points="76.29 54.17 80.5 52.11 84.21 53.76 80.42 56.32 76.29 54.17"/><polygon class="cls-8" points="50.52 83.82 57.06 77.03 61.69 82.74 52.69 89.65 50.52 83.82"/><polygon class="cls-13" points="47.02 82.6 51.48 77.85 57.06 77.03 50.52 83.82 48.2 84.12 47.02 82.6"/><polygon class="cls-14" points="88.03 46.55 89.67 46.09 100.14 44.07 94.29 47.58 90.11 49.91 88.03 46.55"/><polygon class="cls-4" points="90.11 49.91 100.14 44.07 92.71 54.76 90.11 49.91"/><polygon class="cls-8" points="92.71 54.76 100.14 44.07 104.02 41.36 111.83 39.69 112.98 41.4 109.02 49.08 104.15 53.73 99.11 56.08 96.51 58.47 95.49 54.93 92.71 54.76"/><polygon class="cls-2" points="99.04 53.59 99.7 52.02 100.81 51.57 101.72 48.68 101.42 46.31 110.77 41.91 105.67 49.09 102.89 52.17 99.04 53.59"/><polygon class="cls-4" points="90.11 49.91 92.71 69.6 96.51 58.47 95.49 54.93 90.11 49.91"/><polygon class="cls-15" points="41.51 67.89 42.06 70.05 45.43 69.21 41.51 67.89"/><polygon class="cls-16" points="80.59 54.19 81.57 53.41 82.8 53.82 81.08 55.09 80.59 54.19"/><polygon class="cls-3" points="73.98 94.87 70.23 85.95 81.08 87.09 94.16 95.22 73.98 94.87"/><polygon class="cls-1" points="81.08 87.09 92.71 69.6 109.41 73.99 94.16 95.22 81.08 87.09"/><polygon class="cls-3" points="92.71 69.6 96.51 58.47 109.41 73.99 92.71 69.6"/><polygon class="cls-17" points="109.41 73.99 114.9 56.56 107.43 50.61 99.11 56.08 96.51 58.47 109.41 73.99"/><polygon class="cls-8" points="110.71 126.14 120.2 178.65 126 182.81 120 119.45 110.71 126.14"/><polygon class="cls-2" points="125.58 178.91 120 119.45 122.58 125.24 126.24 136.78 125.58 178.91"/><polygon class="cls-2" points="120.1 178.42 126 182.81 126.19 184.82 122.5 186.04 119.92 184.67 120.1 178.42"/><polygon class="cls-8" points="189.97 120.57 200.08 176.55 206.26 180.99 199.87 113.44 189.97 120.57"/><polygon class="cls-2" points="205.82 176.83 199.87 113.44 202.62 119.61 209.05 133.43 205.82 176.83"/><polygon class="cls-2" points="199.98 176.3 206.26 180.99 206.47 183.12 202.53 184.42 199.78 182.96 199.98 176.3"/></svg>