<svg id="Ebene_1" data-name="Ebene 1" xmlns="http://www.w3.org/2000/svg" viewBox="0 0 235.89 231.36"><defs><style>.cls-1{fill:#716474;}.cls-2{fill:#564858;}.cls-3{fill:#423444;}.cls-4{fill:#827786;}.cls-5{fill:#998f9d;}.cls-6{fill:#ada5b1;}.cls-7{fill:#8d8391;}.cls-8{fill:#938997;}.cls-9{fill:#4f4151;}.cls-10{fill:#2e2628;}.cls-11{fill:#1e1e1c;}.cls-12{fill:#585857;}.cls-13{fill:#f5f5f5;}</style></defs><title>Insel_2</title><polygon class="cls-1" points="68.72 131.09 78.21 183.59 83.64 186.1 78.01 124.39 68.72 131.09"/><polygon class="cls-2" points="83.83 188.1 78.01 124.39 80.58 130.18 84.24 141.72 83.83 188.1"/><polygon class="cls-3" points="77.74 181.7 83.64 186.1 83.83 188.1 80.14 189.32 77.56 187.95 77.74 181.7"/><polygon class="cls-1" points="147.97 129.47 157.46 181.98 162.89 184.48 157.26 122.78 147.97 129.47"/><polygon class="cls-2" points="163.09 186.49 157.26 122.78 159.84 128.56 165.31 141.68 163.09 186.49"/><polygon class="cls-3" points="157 180.09 162.89 184.48 163.09 186.49 159.4 187.71 156.81 186.34 157 180.09"/><polygon class="cls-1" points="76.97 98.61 95.35 144.46 61.32 133.59 76.97 98.61"/><polygon class="cls-4" points="91.77 151.04 61.32 133.59 95.35 144.46 91.77 151.04"/><polygon class="cls-5" points="198.92 91.85 189.5 75.06 175.33 92.21 198.92 91.85"/><polygon class="cls-5" points="198.92 91.85 190.1 116.72 175.33 92.21 198.92 91.85"/><polygon class="cls-6" points="183.84 67.14 161.29 54.83 143.39 49.54 100.8 51.73 76.1 60.6 104.78 62.34 153.41 61.46 183.84 67.14"/><polygon class="cls-7" points="104.78 62.34 156.55 116.68 127.77 143.52 76.97 98.61 104.78 62.34"/><polygon class="cls-4" points="190.1 116.72 175.33 92.21 156.55 116.68 190.1 116.72"/><polygon class="cls-1" points="190.1 116.72 157.59 149.38 127.77 143.52 156.55 116.68 190.1 116.72"/><polygon class="cls-8" points="175.33 92.21 156.55 116.68 123.02 81.49 153.41 61.46 175.33 92.21"/><polygon class="cls-7" points="175.33 92.21 189.5 75.06 183.84 67.14 153.41 61.46 175.33 92.21"/><polygon class="cls-4" points="104.78 62.34 153.41 61.46 123.02 81.49 104.78 62.34"/><polygon class="cls-7" points="161.29 54.83 153.41 61.46 143.39 49.54 161.29 54.83"/><polygon class="cls-7" points="104.78 62.34 76.97 98.61 47.28 111.91 42.83 108.42 41.6 100.33 72.5 59.69 104.78 62.34"/><polygon class="cls-1" points="76.97 98.61 47.28 111.91 61.32 133.59 76.97 98.61"/><polygon class="cls-5" points="190.1 116.72 173.82 146.66 157.59 149.38 177.12 129.83 190.1 116.72"/><polygon class="cls-5" points="157.59 149.38 127.77 143.52 95.35 144.46 123.71 153.27 157.59 149.38"/><polygon class="cls-4" points="95.35 144.46 123.71 153.27 91.77 151.04 95.35 144.46"/><polygon class="cls-4" points="127.77 143.52 76.97 98.61 95.35 144.46 127.77 143.52"/><polygon class="cls-5" points="189.5 93.47 191.05 86.53 200.06 85.81 189.5 93.47"/><polygon class="cls-5" points="189.92 97.36 194.76 104.68 201.62 102.84 189.92 97.36"/><polygon class="cls-7" points="189.92 97.36 189.5 93.47 200.06 85.81 203.44 99.9 201.62 102.84 189.92 97.36"/><polygon class="cls-1" points="200.06 85.81 203.44 99.9 206.7 91.84 200.06 85.81"/><polygon class="cls-9" points="50.43 47.16 55.3 44.53 57.97 44.68 59.19 47.36 58.65 50.42 56.8 50.96 50.43 47.16"/><polygon class="cls-5" points="26.05 81.36 16.39 82.77 9.96 78.23 10.95 76 18.05 74.27 26.05 81.36"/><polygon class="cls-10" points="10.95 76 9.79 71.55 18.05 74.27 10.95 76"/><polygon class="cls-6" points="9.79 71.55 31.82 53.31 44.28 57.19 18.05 74.27 9.79 71.55"/><polygon class="cls-5" points="31.82 53.31 39.38 47.96 46.1 46.55 44.28 57.19 31.82 53.31"/><polygon class="cls-4" points="46.1 46.55 44.28 57.19 59.1 54.25 55.26 48.03 46.1 46.55"/><polygon class="cls-7" points="18.05 74.27 26.05 81.36 45.69 80.79 34.13 63.62 18.05 74.27"/><polygon class="cls-5" points="34.18 63.66 44.28 57.19 59.1 54.25 61.74 73.97 45.73 80.82 34.18 63.66"/><polygon class="cls-5" points="32.66 89.55 26.05 81.36 45.69 80.79 50.06 91.43 32.66 89.55"/><polygon class="cls-1" points="45.69 80.79 50.06 91.43 61.69 73.94 45.69 80.79"/><polygon class="cls-6" points="15.07 87.96 16.18 91.32 21.68 93.99 21.51 88.29 16 86.94 15.07 87.96"/><polygon class="cls-6" points="9.96 78.23 16.39 82.77 11.55 81.92 9.96 78.23"/><polygon class="cls-4" points="30.68 87.08 21.68 93.99 32.66 89.55 30.68 87.08"/><polygon class="cls-11" points="45.27 58.51 49.48 56.45 53.19 58.1 49.4 60.65 45.27 58.51"/><polygon class="cls-5" points="19.51 88.15 26.05 81.36 30.68 87.08 21.68 93.99 19.51 88.15"/><polygon class="cls-3" points="16 86.94 20.46 82.19 26.05 81.36 19.51 88.15 17.18 88.46 16 86.94"/><polygon class="cls-1" points="57.01 50.89 58.65 50.42 69.13 48.41 63.28 51.91 59.1 54.25 57.01 50.89"/><polygon class="cls-4" points="59.1 54.25 69.13 48.41 61.7 59.09 59.1 54.25"/><polygon class="cls-6" points="61.7 59.09 69.13 48.41 73 45.69 80.82 44.03 81.97 45.74 78 53.42 73.13 58.07 68.1 60.42 65.49 62.81 64.47 59.27 61.7 59.09"/><polygon class="cls-9" points="68.03 57.92 68.68 56.36 69.8 55.9 70.7 53.02 70.4 50.64 79.76 46.24 74.65 53.42 71.87 56.51 68.03 57.92"/><polygon class="cls-4" points="59.1 54.25 61.69 73.94 65.49 62.81 64.47 59.27 59.1 54.25"/><polygon class="cls-12" points="10.49 72.23 11.05 74.39 14.41 73.55 10.49 72.23"/><polygon class="cls-13" points="49.57 58.52 50.55 57.75 51.78 58.16 50.06 59.42 49.57 58.52"/><polygon class="cls-1" points="42.97 99.2 39.21 90.29 50.06 91.43 63.15 99.56 42.97 99.2"/><polygon class="cls-4" points="50.06 91.43 61.69 73.94 78.39 78.32 63.15 99.56 50.06 91.43"/><polygon class="cls-1" points="61.69 73.94 65.49 62.81 78.39 78.32 61.69 73.94"/><polygon class="cls-2" points="78.39 78.32 83.88 60.89 76.42 54.95 68.1 60.42 65.49 62.81 78.39 78.32"/><polygon class="cls-7" points="79.69 130.48 89.18 182.99 94.98 187.15 88.98 123.79 79.69 130.48"/><polygon class="cls-2" points="94.56 183.25 88.98 123.79 91.56 129.57 95.22 141.12 94.56 183.25"/><polygon class="cls-3" points="89.08 182.76 94.98 187.15 95.17 189.16 91.48 190.37 88.9 189 89.08 182.76"/><polygon class="cls-7" points="158.95 124.91 169.07 180.88 175.25 185.32 168.85 117.78 158.95 124.91"/><polygon class="cls-2" points="174.8 181.16 168.85 117.78 171.6 123.94 178.03 137.77 174.8 181.16"/><polygon class="cls-3" points="168.96 180.64 175.25 185.32 175.45 187.46 171.52 188.76 168.76 187.3 168.96 180.64"/></svg>